<?xml version="1.0" encoding="utf-8"?>
<!-- Generator: Adobe Illustrator 14.0.0, SVG Export Plug-In . SVG Version: 6.00 Build 43363)  -->
<!DOCTYPE svg PUBLIC "-//W3C//DTD SVG 1.1//EN" "http://www.w3.org/Graphics/SVG/1.1/DTD/svg11.dtd">
<svg version="1.1" id="Layer_1" xmlns="http://www.w3.org/2000/svg" xmlns:xlink="http://www.w3.org/1999/xlink" x="0px" y="0px"
	 width="283.46px" height="283.46px" viewBox="0 0 283.46 283.46" enable-background="new 0 0 283.46 283.46" xml:space="preserve">
<circle fill="#F6CBCE" cx="141.262" cy="142.242" r="97.828"/>
<path fill="#FFFFFF" d="M188.757,72.619c-0.432,1.104,0.202,81.206-0.355,85.781c-23.693,0.071-42.354-19.058-42.424-42.751
	C145.909,91.955,165.06,72.688,188.757,72.619z"/>
<path fill="#FFFFFF" d="M99.734,95.47c0.434,1.104-0.469,81.207,0.076,85.781c23.691,0.146,42.414-18.919,42.562-42.613
	C142.521,114.946,123.426,95.618,99.734,95.47z"/>
<g>
	<path fill="#FFFFFF" d="M107.238,190.146c-0.686-0.705-1.632-1.139-2.625-1.139c-1.918,0-3.471,1.666-3.471,3.56
		c0,1.896,1.564,3.562,3.492,3.562c0.972,0,1.918-0.459,2.604-1.143v1.187c-0.742,0.537-1.654,0.845-2.568,0.845
		c-2.431,0-4.484-1.974-4.484-4.417c0-2.465,2.02-4.486,4.484-4.486c0.959,0,1.802,0.276,2.568,0.846V190.146z"/>
	<path fill="#FFFFFF" d="M119.682,192.576c0,2.477-2.031,4.441-4.484,4.441c-2.455,0-4.486-1.965-4.486-4.441
		c0-2.463,2.031-4.462,4.486-4.462C117.65,188.114,119.682,190.113,119.682,192.576z M111.67,192.566
		c0,1.94,1.576,3.562,3.527,3.562c1.95,0,3.525-1.622,3.525-3.562c0-1.952-1.551-3.56-3.525-3.56
		C113.224,189.007,111.67,190.614,111.67,192.566z"/>
	<path fill="#FFFFFF" d="M123.33,187.897l6.71,7.03v-6.663h0.958v8.992l-6.709-7.018v6.628h-0.959V187.897z"/>
	<path fill="#FFFFFF" d="M137.772,194.824l2.453-6.56h1.038l-3.491,9.118l-3.493-9.118h1.038L137.772,194.824z"/>
	<path fill="#FFFFFF" d="M144.487,188.265h4.462v0.89h-3.504v2.557h3.4v0.89h-3.4v3.377h3.504v0.89h-4.462V188.265z"/>
	<path fill="#FFFFFF" d="M152.925,187.897l6.71,7.03v-6.663h0.958v8.992l-6.709-7.018v6.628h-0.959V187.897z"/>
	<path fill="#FFFFFF" d="M165.654,196.867h-0.959v-8.603h0.959V196.867z"/>
	<path fill="#FFFFFF" d="M170.621,193.39c0,0.638-0.022,1.368,0.377,1.915c0.378,0.525,1.107,0.824,1.736,0.824
		c0.615,0,1.289-0.287,1.688-0.768c0.455-0.547,0.421-1.302,0.421-1.972v-5.125h0.959v5.386c0,0.937-0.069,1.677-0.754,2.387
		c-0.592,0.636-1.447,0.98-2.314,0.98c-0.812,0-1.645-0.308-2.227-0.88c-0.754-0.72-0.846-1.506-0.846-2.487v-5.386h0.959V193.39z"
		/>
	<path fill="#FFFFFF" d="M180.91,187.774l3.126,7.222l3.138-7.222l1.745,9.093h-0.981l-1.106-5.819h-0.022l-2.772,6.175
		l-2.761-6.175h-0.024l-1.107,5.819h-0.98L180.91,187.774z"/>
</g>
<g>
	<path fill="#FFFFFF" d="M103.752,203.662c1.909,0,3.234,1.378,3.234,3.289c0,1.908-1.325,3.288-3.234,3.288
		c-1.91,0-3.235-1.38-3.235-3.288C100.517,205.04,101.842,203.662,103.752,203.662z M103.752,209.709
		c1.635,0,2.651-1.203,2.651-2.758c0-1.556-1.017-2.759-2.651-2.759c-1.636,0-2.652,1.203-2.652,2.759
		C101.1,208.506,102.116,209.709,103.752,209.709z M102.912,202.23c0.238,0,0.424,0.185,0.424,0.424s-0.186,0.424-0.424,0.424
		c-0.239,0-0.425-0.185-0.425-0.424S102.673,202.23,102.912,202.23z M104.592,202.23c0.238,0,0.424,0.185,0.424,0.424
		s-0.186,0.424-0.424,0.424c-0.239,0-0.424-0.185-0.424-0.424S104.353,202.23,104.592,202.23z"/>
	<path fill="#FFFFFF" d="M114.644,208.922c0.31,0.521,0.812,0.787,1.433,0.787c0.785,0,1.404-0.478,1.404-1.229
		c0-1.751-3.227-0.726-3.227-3.103c0-1.113,0.955-1.715,2.007-1.715c0.681,0,1.282,0.229,1.706,0.786l-0.504,0.363
		c-0.292-0.407-0.681-0.619-1.22-0.619c-0.751,0-1.405,0.39-1.405,1.185c0,1.882,3.227,0.751,3.227,3.103
		c0,1.131-0.929,1.76-1.945,1.76c-0.822,0-1.547-0.267-2.033-0.946L114.644,208.922z"/>
	<path fill="#FFFFFF" d="M126.959,204.352h-2.139v-0.529h4.861v0.529h-2.139v5.728h-0.584V204.352z"/>
	<path fill="#FFFFFF" d="M136.827,203.822h3.828v0.529h-3.245v2.228h3.041v0.529h-3.041v2.44h3.387v0.53h-3.97V203.822z"/>
	<path fill="#FFFFFF" d="M148.251,203.822h1.644c0.496,0,2.229,0,2.229,1.644c0,1.193-0.912,1.52-1.6,1.608l1.819,3.005h-0.663
		l-1.759-2.971h-1.087v2.971h-0.583V203.822z M148.834,206.579h1.237c1.229,0,1.468-0.681,1.468-1.113s-0.239-1.114-1.468-1.114
		h-1.237V206.579z"/>
	<path fill="#FFFFFF" d="M159.674,203.822h0.583v5.727h2.918v0.53h-3.501V203.822z"/>
	<path fill="#FFFFFF" d="M170.274,203.822h3.827v0.529h-3.244v2.228h3.042v0.529h-3.042v2.44h3.388v0.53h-3.971V203.822z"/>
	<path fill="#FFFFFF" d="M181.698,203.822h0.752l3.81,5.48h0.017v-5.48h0.585v6.257h-0.752l-3.81-5.479h-0.019v5.479h-0.583V203.822
		z"/>
</g>
</svg>
