<?xml version="1.0" encoding="utf-8"?>
<!-- Generator: Adobe Illustrator 14.0.0, SVG Export Plug-In . SVG Version: 6.00 Build 43363)  -->
<!DOCTYPE svg PUBLIC "-//W3C//DTD SVG 1.1//EN" "http://www.w3.org/Graphics/SVG/1.1/DTD/svg11.dtd">
<svg version="1.1" id="Layer_1" xmlns="http://www.w3.org/2000/svg" xmlns:xlink="http://www.w3.org/1999/xlink" x="0px" y="0px"
	 width="283.46px" height="283.46px" viewBox="0 0 283.46 283.46" enable-background="new 0 0 283.46 283.46" xml:space="preserve">
<circle fill="#F6CBCE" cx="141.681" cy="141.931" r="97.827"/>
<g>
	<g>
		<path fill="#FFFFFF" d="M128.48,186.266c-3.265-0.221-6.224-0.546-9.017-0.996l0,0c-2.62-0.399-4.504-0.789-5.561-1.012l0,0
			c-0.069-0.013-0.138-0.026-0.206-0.04l0,0c-4.671-0.926-8.083-1.787-12.55-3.526l0,0c-5.717-2.226-10.004-4.457-12.966-6.85l0,0
			c-2.952-2.389-6.236-5.941-7.757-8.835l0,0c-1.501-2.87-3.487-8.066-3.945-11.059l0,0c-0.447-2.941-0.995-7.54-0.995-12.149l0,0
			c0.003-4.624,0.839-10.577,1.801-13.241l0,0c0.952-2.618,2.985-7.623,4.768-10.017l0,0c1.974-2.646,4.073-4.998,8.074-7.895l0,0
			c3.949-2.859,8.965-5.246,12.862-6.658l0,0c1.208-0.437,2.654-0.908,4.223-1.386l0,0c4.393-1.35,9.047-2.512,11.82-3.099l0,0
			c1.598-0.348,3.026-0.62,4.146-0.778l0,0c0.231-0.033,0.468-0.067,0.708-0.103l0,0c2-0.32,4.351-0.654,6.842-0.937l0,0
			c1.65-0.194,3.416-0.369,5.292-0.497l0,0c0.955-0.07,1.909-0.126,2.852-0.16l0,0c0.933-0.034,1.856-0.062,2.76-0.062l0,0
			c0.191,0,0.382,0.002,0.571,0.005l0,0c0.02,0,0.039,0,0.059,0l0,0v0.001v-0.001c0.399,0,1.075,0.002,1.92,0.011l0,0
			c1.45,0.005,3.292,0.018,5.376,0.11l0,0c0.762,0.033,1.554,0.088,2.369,0.15l0,0c1.705,0.11,3.16,0.236,3.898,0.298l0,0
			c0.627,0.052,1.689,0.157,2.954,0.304l0,0c1.354,0.144,2.719,0.312,4.072,0.497l0,0c1.225,0.169,2.44,0.352,3.628,0.559l0,0
			c0.923,0.146,1.7,0.283,2.223,0.396l0,0c2.438,0.522,7.724,1.763,11.188,2.894l0,0c3.627,1.183,7.648,2.834,10.514,4.468l0,0
			c4.812,2.743,6.916,4.189,9.238,6.672l0,0c2.504,2.678,5.691,7.229,6.855,11.272l0,0c1.143,3.97,2.406,8,2.403,17.198l0,0
			c0.007,10.938-1.47,13.784-3.307,18.079l0,0c-1.82,4.268-4.642,8.529-8.009,11.358l0,0c-3.317,2.79-5.457,4.673-12.219,7.515l0,0
			c-2.344,0.986-5,1.984-7.879,2.906l0,0c-4.921,1.6-11.389,3.171-19.305,4.124l0,0c-1.586,0.198-3.062,0.348-4.623,0.479l0,0
			c-1.324,0.11-2.709,0.199-4.273,0.264l0,0c-2.253,0.104-4.595,0.152-7.024,0.152l0,0c-0.197,0-0.401,0.01-0.613,0.01l0,0
			c0,0,0,0.001-0.016,0.001l0,0C136.494,186.675,132.172,186.526,128.48,186.266L128.48,186.266z M135.711,186.045
			c2.052,0.047,4.226,0.068,6.548,0.068l0,0c2.781,0,5.037-0.042,7.005-0.123l0,0c1.4-0.064,2.768-0.15,4.098-0.259l0,0
			c1.631-0.133,3.211-0.293,4.734-0.477l0,0c1.175-0.146,2.41-0.319,3.785-0.534l0,0c0.736-0.114,1.365-0.232,2.205-0.368l0,0
			c0.172-0.027,0.503-0.096,0.693-0.128l0,0c4.408-0.74,8.654-1.833,12.506-3.064l0,0c2.779-0.902,5.06-1.813,6.82-2.625l0,0
			c5.635-2.595,9.54-6.177,12.945-10.482l0,0c3.288-4.158,5.119-9.125,6.305-13.179l0,0c1.178-4.022,1.525-9.405,1.723-13.09l0,0
			c0.035-0.661,0.057-1.375,0.057-2.141l0,0c0-3.472-0.436-7.998-1.932-13.479l0,0c-1.721-6.293-4.047-9.683-6.887-12.902l0,0
			c-3.534-4.005-7.664-6.234-10.543-7.843l0,0c-2.846-1.592-7.583-3.554-17.084-5.553l0,0c-0.744-0.157-1.504-0.302-2.277-0.436l0,0
			c-1.873-0.299-4.371-0.646-6.532-0.915l0,0c-0.405-0.051-0.799-0.098-1.175-0.142l0,0c-1.03-0.109-2.055-0.205-3.061-0.285l0,0
			c-1.289-0.104-2.547-0.219-3.749-0.312l0,0c-0.729-0.046-1.505-0.09-2.288-0.123l0,0c-1.962-0.084-3.978-0.122-5.461-0.138l0,0
			c-0.738-0.002-1.375-0.002-1.892-0.01l0,0c-0.012,0-0.024,0-0.035-0.001l0,0c-2.19,0.001-4.267,0.085-6.223,0.221l0,0
			c-0.975,0.071-1.951,0.158-2.917,0.25l0,0c-0.736,0.071-1.467,0.148-2.186,0.229l0,0c-2.607,0.304-4.931,0.657-6.95,0.949l0,0
			c-1.798,0.288-3.309,0.565-4.371,0.782l0,0c-0.136,0.027-0.277,0.057-0.424,0.088l0,0c-3.534,0.771-7.926,1.92-11.64,3.045l0,0
			c-1.604,0.49-3.173,1.005-4.604,1.525l0,0c-0.305,0.111-0.612,0.249-0.923,0.367l0,0c-8.692,3.326-14.018,10.271-17.331,15.226
			l0,0c-1.849,2.745-5.221,12.625-5.212,21.611l0,0c0.002,9.076,1.501,14.98,4.343,21.653l0,0
			c2.943,6.899,7.544,10.644,14.078,14.636l0,0c6.11,3.731,13.476,5.088,15.687,5.549l0,0c0.131,0.027,0.286,0.06,0.464,0.098l0,0
			c1.068,0.208,2.21,0.406,3.45,0.64l0,0c0.692,0.132,1.393,0.254,2.105,0.369l0,0c1.479,0.226,3.195,0.453,5.13,0.657l0,0
			c1.176,0.123,2.426,0.233,3.76,0.327l0,0C130.71,185.883,133.111,185.985,135.711,186.045L135.711,186.045z"/>
	</g>
	<g>
		<path fill="#FFFFFF" d="M183.432,113.422l3.931,2.062c0,0-0.036,0.635-0.177,2.433s-0.3,3.983-0.423,5.622
			c-0.124,1.64-0.229,3.278-0.229,3.278s1.129-0.177,2.291-0.6c1.164-0.423,2.626-1.074,3.508-1.621
			c0.881-0.546,1.516-1.128,1.814-1.586c0.301-0.458,0.336-0.581,0.424-0.775s0.111-0.3,0.111-0.3l3.16,1.445
			c0,0-0.152,0.446-1.221,1.257c-1.07,0.811-1.938,1.469-3.396,2.127c-1.458,0.657-1.974,0.881-3.091,1.222
			c-1.116,0.342-1.962,0.564-2.514,0.693c-0.553,0.129-0.835,0.165-0.835,0.165s-0.271,0.305-0.646,0.728
			c-0.355,0.4-0.553,0.553-1.258,1.422s-0.929,1.151-1.398,1.821c-0.47,0.669-0.999,1.41-1.27,1.928
			c-0.27,0.516-0.634,1.198-0.857,1.785c-0.223,0.587-0.434,1.211-0.539,1.586c-0.106,0.376-0.307,1.47-0.318,1.845
			c-0.012,0.376-0.035,1.352,0,1.658c0.035,0.304,0.094,0.634,0.165,0.88c0.062,0.219,0.212,0.682,0.599,1.245
			c0.389,0.563,0.917,1.152,1.305,1.47c0.387,0.316,0.693,0.61,1.797,0.952c1.105,0.34,1.681,0.516,2.668,0.54
			c0.986,0.023,1.962-0.141,2.689-0.376c0.871-0.282,1.457-0.481,2.057-0.905c0.6-0.423,1.14-0.811,1.656-1.445
			c0.518-0.634,0.906-1.069,1.281-1.774c0.377-0.705,0.576-1.186,0.74-1.868c0.164-0.682,0.348-1.304,0.294-2.308
			c-0.042-0.793-0.648-1.563-0.925-1.833c-0.379-0.371-0.811-0.503-0.979-0.548c-0.37-0.097-0.898-0.132-1.365-0.123
			c-0.467,0.01-1.023,0.062-1.367,0.22c-0.344,0.16-0.793,0.397-1.093,0.751c-0.271,0.32-0.493,0.562-0.705,0.969
			c-0.212,0.405-0.378,0.749-0.448,1.198c-0.071,0.449-0.035,0.588,0.07,1.021c0.132,0.547,0.405,0.819,0.555,1.005
			c0.15,0.186,0.256,0.309,0.256,0.309s-0.275,0.211-0.396,0.257c-0.617,0.228-0.961,0.123-1.312,0.069
			c-0.379-0.057-0.424-0.114-0.67-0.247c-0.248-0.132-0.564-0.361-0.785-0.634c-0.22-0.273-0.449-0.538-0.607-1.014
			c-0.158-0.477-0.265-1.093-0.265-1.507s0.009-0.828,0.194-1.33c0.186-0.503,0.467-1.11,0.748-1.41
			c0.282-0.3,0.652-0.661,0.987-0.838c0.335-0.176,0.819-0.44,1.296-0.528c0.476-0.089,0.766-0.124,1.172-0.124
			c0.291,0,0.652-0.043,1.286,0.106c0.635,0.149,0.995,0.273,1.463,0.52c0.468,0.247,1.007,0.566,1.445,0.908
			c0.476,0.369,0.608,0.528,0.828,0.758c0.221,0.229,0.503,0.608,0.74,0.986c0.238,0.379,0.291,0.458,0.634,1.005
			c0.344,0.547,0.627,1.022,0.741,1.437s0.194,0.96,0.185,1.4c-0.009,0.442,0.005,0.776-0.141,1.322
			c-0.238,0.898-0.396,1.445-0.695,2.009c-0.3,0.565-0.803,1.454-1.332,1.983c-0.528,0.528-1.137,1.137-1.797,1.463
			c-0.661,0.325-1.615,0.783-2.269,0.924c-0.651,0.142-1.424,0.252-1.927,0.252c-0.502,0-1.148-0.102-1.801-0.261
			c-0.652-0.158-1.213-0.354-1.83-0.688c-0.627-0.339-1.158-0.665-1.826-1.115c-0.56-0.379-1.789-1.351-2.256-1.915
			c-0.467-0.563-0.722-0.846-1.057-1.56c-0.336-0.714-0.477-0.951-0.705-1.559c-0.229-0.608-0.395-1.322-0.474-2.081
			c-0.079-0.758-0.114-1.393-0.026-2.141c0.088-0.749,0.256-1.896,0.422-2.495c0.168-0.599,0.354-1.462,0.6-2.053
			c0.248-0.591,0.494-1.102,0.75-1.596c0.256-0.492,0.599-1.171,1.021-1.814c0.424-0.643,0.863-1.383,1.154-1.763
			c0.291-0.379,0.512-0.651,0.512-0.651s0.105-0.943,0.167-1.692c0.062-0.748,0.186-1.858,0.212-2.987
			c0.025-1.128,0-3.084-0.035-3.878c-0.035-0.793-0.123-2.379-0.193-3.084c-0.071-0.705-0.178-1.092-0.273-1.41
			C183.537,113.704,183.432,113.422,183.432,113.422z"/>
	</g>
	<g>
		<path fill="#FFFFFF" d="M129.965,130.253c0,0,2.527,0,3.948-0.035c1.422-0.035,2.632-0.129,3.548-0.117
			c0.917,0.013,2.433,0.082,3.196,0.235c0.764,0.152,1.234,0.246,1.833,0.47s1.163,0.563,1.622,0.87
			c0.458,0.305,1.093,0.739,1.41,1.139s0.705,0.916,0.916,1.656c0.212,0.74,0.376,1.682,0.153,2.444
			c-0.224,0.764-0.493,1.433-0.929,1.962s-1.14,1.234-1.68,1.611c-0.541,0.375-1.399,0.892-1.399,0.892s0.059,0.117,0.306,0.682
			c0.247,0.563,0.646,1.433,0.986,2.045c0.341,0.61,0.6,1.057,0.976,1.621c0.375,0.563,1.174,1.586,1.645,2.079
			c0.471,0.494,1.411,1.328,2.057,1.68c0.646,0.354,0.939,0.471,1.95,0.73c1.011,0.257,1.328,0.316,1.328,0.316
			s-0.382,0.353-1.034,0.705c-0.685,0.369-1.116,0.458-1.598,0.481c-0.482,0.022-1.561-0.235-1.934-0.375
			c-1.111-0.42-1.225-0.478-1.756-0.825c-0.511-0.334-0.811-0.492-1.375-1.104c-0.564-0.609-1.21-1.387-1.622-1.974
			c-0.411-0.587-0.729-1.08-1.199-1.845c-0.47-0.764-0.764-1.28-1.328-2.256c-0.564-0.975-0.822-1.397-0.822-1.397
			s-1.728,0-2.256,0.034c-0.529,0.035-1.328,0.048-1.328,0.048s0.023,2.68,0.023,3.336c0,0.659,0.047,2.679,0.059,3.326
			c0.012,0.646,0.023,0.986,0.07,1.08c0.047,0.095,0.188,0.4,0.364,0.718c0.177,0.316,0.353,0.728,0.353,0.728l-4.794,0.576
			c0,0-0.012-0.987,0-1.586c0.012-0.6,0.083-1.575,0.118-2.702c0.035-1.129,0.071-3.268,0.083-4.148
			c0.011-0.882-0.036-3.724-0.06-4.759c-0.023-1.033-0.035-2.537-0.093-3.548c-0.059-1.011-0.071-1.527-0.141-1.902
			c-0.071-0.377-0.376-1.081-0.646-1.481c-0.27-0.4-0.517-0.752-0.693-0.999S129.965,130.253,129.965,130.253z M138.501,139.788
			c0.669-0.018,1.48-0.088,2.132-0.282s0.917-0.406,1.393-0.793c0.476-0.388,0.688-0.935,0.776-1.251
			c0.088-0.318,0.158-1.04,0.123-1.499c-0.035-0.457-0.123-0.898-0.247-1.321c-0.124-0.423-0.353-0.881-0.564-1.217
			c-0.211-0.334-0.546-0.651-0.917-0.898c-0.37-0.247-0.652-0.264-1.092-0.317c-0.441-0.052-1.111-0.052-1.551-0.052
			c-0.441,0-1.305,0.034-1.763,0.07c-0.458,0.035-1.357,0.105-1.357,0.105l0.088,7.455
			C135.522,139.788,137.831,139.806,138.501,139.788z"/>
	</g>
	<g>
		<path fill="#FFFFFF" d="M161.639,129.447c0.375-0.012,0.812-0.006,1.398,0.057c0.586,0.062,1.46,0.186,2.133,0.336
			c0.676,0.15,1.749,0.388,2.785,0.75c1.035,0.362,2.083,0.837,2.733,1.262c0.648,0.424,1.11,0.799,1.385,1.098
			c0.275,0.3,0.524,0.675,0.774,1.161c0.25,0.487,0.549,1.098,0.711,1.572c0.162,0.474,0.387,1.187,0.5,1.847
			c0.111,0.662,0.236,1.885,0.249,2.459c0.013,0.575-0.062,1.573-0.124,2.31c-0.063,0.736-0.188,1.797-0.375,2.409
			c-0.188,0.61-0.625,1.635-0.986,2.234c-0.361,0.599-0.936,1.396-1.498,1.935c-0.562,0.536-0.924,0.872-1.473,1.21
			s-0.836,0.5-1.461,0.725c-0.624,0.225-1.285,0.474-1.996,0.611c-0.711,0.137-1.511,0.312-2.422,0.374
			c-0.91,0.063-2.322,0.062-2.82,0.038c-0.499-0.024-1.484-0.05-2.209-0.149c-0.724-0.1-1.398-0.188-2.234-0.413
			s-1.322-0.374-2.146-0.861c-0.824-0.486-1.287-0.724-1.835-1.311c-0.55-0.586-0.987-1.085-1.337-1.71
			c-0.348-0.623-0.709-1.435-0.885-2.021s-0.301-0.936-0.426-1.735c-0.123-0.799-0.225-1.859-0.199-2.921
			c0.025-1.061,0.062-1.571,0.15-2.196c0.087-0.623,0.236-1.336,0.387-1.786c0.149-0.448,0.475-1.247,0.686-1.684
			c0.213-0.437,0.638-1.148,0.912-1.522c0.274-0.375,0.812-0.999,1.223-1.336c0.412-0.336,1.124-0.887,1.635-1.147
			c0.514-0.263,1.561-0.736,2.223-0.912c0.662-0.175,1.96-0.487,2.696-0.573C160.499,129.47,160.764,129.477,161.639,129.447z
			 M157.896,132.169c-0.576,0.167-1.291,0.58-1.723,0.843c-0.43,0.262-1.067,0.992-1.441,1.534c-0.374,0.544-0.599,1.18-0.749,1.555
			c-0.149,0.375-0.394,1.816-0.468,2.527c-0.074,0.712-0.074,2.004-0.02,2.565c0.058,0.561,0.319,1.854,0.544,2.639
			c0.224,0.787,0.712,1.667,1.085,2.191c0.375,0.524,1.104,1.336,2.107,1.943c2.184,1.319,3.035,1.487,4.745,1.745
			c1.397,0.211,1.854,0.074,2.677,0c0.825-0.074,1.761-0.394,2.435-0.749c0.675-0.355,1.087-0.731,1.367-1.048
			c0.28-0.318,0.542-0.919,0.841-1.518c0.301-0.599,0.639-1.685,0.732-2.059c0.093-0.376,0.262-1.535,0.279-2.679
			c0.02-1.142-0.111-2.357-0.204-2.92c-0.095-0.562-0.356-1.666-0.544-2.189c-0.188-0.525-0.692-1.273-1.029-1.667
			c-0.338-0.393-0.992-0.937-1.424-1.273c-0.43-0.337-1.366-0.749-1.946-0.992s-1.405-0.355-1.966-0.468
			c-0.562-0.113-1.516-0.224-1.873-0.244c-0.355-0.018-1.853,0-2.152,0.021C159.17,131.927,158.607,131.963,157.896,132.169z"/>
	</g>
	<g>
		<path fill="#FFFFFF" d="M110.86,130.853c0,0,2.28-0.411,3.279-0.481c0.999-0.071,2.538-0.105,2.538-0.105
			s-0.118,1.903-0.141,2.631c-0.023,0.729-0.023,6.51-0.023,6.51s1.962-1.175,2.891-1.892c0.928-0.717,1.551-1.176,2.338-1.963
			c0.788-0.786,1.68-1.738,2.091-2.361c0.412-0.623,0.529-0.752,0.529-0.928c0-0.177-0.07-0.506-0.353-0.904
			c-0.282-0.4-0.575-0.776-0.575-0.776l5.323-0.258c0,0-0.095,0.61-0.306,1.021s-0.778,1.408-1.116,1.868
			c-0.423,0.576-1.01,1.375-1.774,2.15s-1.422,1.398-2.538,2.256c-1.116,0.858-2.409,1.762-3.056,2.174
			c-0.646,0.412-0.87,0.553-0.87,0.553s0.024-0.024,0.729,0.728c0.706,0.753,1.223,1.293,1.892,2.021
			c0.67,0.729,1.493,1.61,2.256,2.421c0.764,0.811,1.517,1.621,2.915,3.113c1.397,1.491,3.312,3.536,4.465,4.733
			c1.151,1.199,3.292,3.417,4.372,4.463c1.081,1.046,2.104,2.033,2.597,2.468c0.493,0.434,1.034,0.882,1.034,0.882
			s0.775-0.424,1.339-0.74c0.564-0.318,2.233-1.233,3.22-1.705c0.986-0.47,2.562-1.222,3.807-1.727
			c1.246-0.505,3.302-1.316,4.652-1.669c1.352-0.353,3.161-0.775,4.195-0.904c1.034-0.13,2.525-0.247,3.125-0.247
			s2.044,0.012,3.172,0.188s2.62,0.505,3.42,0.798c0.799,0.295,1.82,0.646,2.443,0.999s1.328,0.718,1.834,1.293
			c0.504,0.576,0.462,0.563,0.462,0.563c0.144,0.215,0.03-0.013,0.222,0.369c0.2,0.4,0.337,0.792,0.443,1.194
			c0.141,0.528,0.141,0.928,0.141,1.304s-0.093,0.847-0.211,1.223c-0.117,0.375-0.506,1.093-0.799,1.445
			c-0.294,0.352-0.916,0.998-1.362,1.304c-0.447,0.305-1.454,0.829-2.28,1.176c-0.729,0.305-1.387,0.575-3.443,1.08
			c-0.466,0.112-1.229,0.282-2.149,0.4c-0.364,0.047-2.644,0.187-3.229,0.187c-2.223,0-4.59-0.172-5.277-0.281
			c-3.524-0.564-3.442-0.658-4.323-0.8c-0.882-0.141-4.876-1.245-5.522-1.457c-0.646-0.211-1.281-0.493-1.692-0.692
			c-0.412-0.2-0.706-0.412-0.706-0.412s-0.599,0.389-1.068,0.694c-0.47,0.305-1.821,1.104-2.738,1.621s-1.739,0.964-2.08,1.163
			c-0.341,0.2-0.517,0.282-0.517,0.282s0.564,0.328,1.092,0.587c0.529,0.259,1.704,0.834,2.703,1.27
			c0.999,0.435,2.843,1.198,4.042,1.655c1.199,0.46,2.891,1.07,4.218,1.458s3.009,0.869,4.019,1.08
			c1.01,0.212,2.96,0.625,3.971,0.753c1.01,0.129,2.611,0.258,3.598,0.315c0.986,0.06,3.379,0.078,4.321,0.043
			c0.658-0.024,2.231-0.152,3.207-0.281c0.975-0.13,2.433-0.399,3.313-0.576s2.678-0.682,3.442-0.964
			c0.765-0.281,2.292-0.916,2.938-1.222s2.737-1.445,3.337-1.855c0.6-0.413,1.598-1.152,2.197-1.774
			c0.6-0.623,1.363-1.563,1.715-2.198c0.353-0.635,0.765-1.403,1-2.238c0.235-0.834,0.387-1.656,0.436-2.314
			c0.047-0.659,0.105-1.445,0.105-1.974c0-0.529,0-1.059-0.2-1.728s-0.258-0.999-0.599-1.586c-0.342-0.588-0.752-1.187-0.752-1.187
			l4.252-2.409c0,0,0.4,0.564,0.623,0.893c0.223,0.33,0.459,0.67,0.646,1.258c0.188,0.588,0.26,1.151,0.271,1.622
			c0.012,0.469-0.036,1.269-0.188,1.997c-0.152,0.728-0.481,2.045-0.822,2.843c-0.34,0.799-0.729,1.609-1.256,2.327
			c-0.529,0.717-0.741,0.965-1.458,1.738c-0.739,0.799-1.187,1.234-3.243,3.138c-0.414,0.384-1.738,1.469-2.796,2.138
			c-0.933,0.592-0.94,0.587-1.704,0.987c-0.764,0.399-1.727,0.929-2.632,1.293c-0.905,0.363-1.456,0.67-2.632,1.045
			c-5.365,1.716-7.613,2.115-11.033,2.679c-1.149,0.189-1.48,0.235-2.432,0.306c-0.952,0.07-2.174,0.083-2.891,0.083
			c-0.716,0-1.927,0.013-3.172-0.106c-1.246-0.117-3.313-0.364-4.912-0.775c-1.598-0.41-2.666-0.682-4.276-1.258
			c-1.61-0.575-3.502-1.314-4.947-1.974c-1.445-0.658-5.182-2.514-5.793-2.832c-0.611-0.316-0.857-0.492-0.857-0.492
			s-1.223,0.704-2.385,1.304s-2.35,1.198-3.455,1.715c-1.104,0.518-2.514,1.129-3.266,1.435c-0.752,0.305-1.527,0.587-2.361,0.834
			c-0.834,0.247-1.716,0.552-2.714,0.717c-0.999,0.164-2.644,0.398-3.478,0.434c-0.834,0.036-1.563,0.025-2.045-0.01
			c-0.481-0.036-3.196-0.267-4.311-0.471c-1.728-0.318-2.646-0.581-3.267-0.775c-0.787-0.248-1.976-0.748-2.068-0.799
			c-1.058-0.589-1.704-1.082-2.103-1.481s-0.729-0.775-1.093-1.363c-0.364-0.586-0.682-1.128-0.811-1.597
			c-0.129-0.471-0.188-0.822-0.188-1.422s0.047-1.094,0.094-1.317c0.047-0.223,0.2-0.974,0.4-1.386
			c0.2-0.411,0.446-0.928,0.717-1.28c0.27-0.353,0.54-0.729,0.927-1.093c0.389-0.364,0.953-0.822,1.234-0.999
			c0.282-0.176,0.764-0.544,1.187-0.732c0.423-0.188,1.328-0.607,1.951-0.783c0.623-0.177,1.457-0.458,2.033-0.528
			c0.576-0.071,2.55-0.329,3.149-0.354c0.599-0.023,2.021-0.034,2.62,0.013c0.599,0.047,1.88,0.059,3.29,0.317
			c1.41,0.258,3.231,0.563,4.559,0.975c1.328,0.412,3.043,1.023,4.1,1.47c1.058,0.446,2.727,1.233,3.514,1.667
			c0.787,0.436,2.573,1.41,2.949,1.634c0.375,0.224,0.552,0.341,0.552,0.341s0.681-0.434,0.987-0.611
			c0.306-0.176,1.41-0.786,2.162-1.234c0.752-0.446,2.268-1.362,2.75-1.644c0.482-0.282,0.74-0.493,0.74-0.493
			s-0.681-0.459-1.222-0.835c-0.541-0.376-1.527-1.116-2.115-1.609c-0.588-0.494-1.258-0.999-2.256-1.915
			c-0.999-0.916-2.762-2.573-3.771-3.595c-1.011-1.023-2.035-1.925-2.811-2.759c-0.775-0.835-1.469-1.574-2.327-2.49
			c-0.857-0.917-2.009-2.128-2.75-2.938c-0.74-0.811-2.408-2.514-2.949-3.078c-0.541-0.564-0.894-0.929-0.894-0.929
			s-0.035,0.423-0.046,1.551c-0.012,1.129,0.024,3.338,0.07,3.972c0.046,0.635,0.095,1.634,0.141,1.938
			c0.046,0.306,0.27,0.836,0.458,1.152c0.188,0.317,0.563,1.011,0.563,1.011l-5.099,0.493c0,0-0.047-1.01-0.012-1.551
			c0.036-0.541,0.129-1.728,0.153-2.268c0.024-0.541,0.129-1.963,0.153-2.538c0.023-0.576,0.036-1.892,0.046-2.503
			c0.012-0.611-0.012-4.019-0.023-4.994c-0.011-0.976-0.011-1.985-0.035-3.055c-0.023-1.068-0.035-1.633-0.106-1.856
			s-0.21-0.811-0.787-1.374C111.46,131.334,110.86,130.853,110.86,130.853z M101.451,162.827c-0.418,0.14-0.92,0.403-1.402,0.767
			c-0.378,0.286-0.737,0.76-0.966,1.111c-0.229,0.354-0.669,1.464-0.758,1.728c-0.088,0.265-0.176,1.058-0.193,1.393
			c-0.019,0.334,0.123,1.339,0.316,1.85c0.194,0.512,0.635,1.305,1.146,1.922c0.512,0.616,0.969,1.04,1.622,1.48
			c0.652,0.44,1.445,0.776,2.502,1.163c1.058,0.388,2.45,0.67,3.12,0.759c0.67,0.087,1.627,0.193,2.509,0.176
			c0.881-0.019,1.692-0.105,2.167-0.176c0.476-0.071,2.009-0.441,2.714-0.653s1.833-0.599,3.173-1.145
			c1.34-0.547,1.938-0.829,3.261-1.445c1.322-0.617,2.45-1.27,3.436-1.799c0.987-0.528,1.763-0.986,2.574-1.444
			c0.811-0.459,1.392-0.776,1.392-0.776s-0.552-0.311-1.398-0.757c-0.846-0.446-1.998-1.034-3.126-1.552
			c-1.128-0.517-2.937-1.221-4.324-1.669c-1.329-0.428-3.666-0.962-4.652-1.15c-0.987-0.188-3.408-0.518-4.23-0.587
			c-0.823-0.071-2.468-0.069-3.337-0.047C106.997,161.975,103.785,162.046,101.451,162.827z M142.88,163.513
			c0.399,0.211,1.622,0.799,2.444,1.141c0.822,0.341,2.091,0.698,3.078,1.039s2.35,0.67,3.302,0.882
			c0.952,0.211,2.562,0.457,3.185,0.517c0.621,0.059,1.986,0.13,2.901,0.13c0.917,0,2.35-0.036,3.114-0.106
			c0.763-0.07,1.586-0.119,3.113-0.53c0.865-0.232,1.516-0.41,2.092-0.609s1.492-0.576,1.975-0.811
			c0.48-0.235,0.95-0.54,1.314-0.799c0.365-0.26,0.805-0.664,1.109-1.041c0.305-0.375,0.611-0.963,0.74-1.327s0.2-0.963,0.2-1.305
			c0-0.341-0.071-0.763-0.165-1.14c-0.094-0.375-0.242-0.807-0.434-1.087c-0.354-0.515-0.798-0.959-2.134-1.356
			c-0.5-0.148-1.649-0.247-2.302-0.316c-0.652-0.07-1.956-0.142-2.75-0.142c-0.792,0-2.026,0.018-2.819,0.071
			c-0.793,0.052-2.661,0.281-3.612,0.457c-0.952,0.176-2.485,0.547-3.243,0.759c-0.758,0.211-1.938,0.616-2.645,0.863
			c-0.704,0.246-2.185,0.916-2.942,1.251s-2.502,1.233-3.314,1.64c-0.81,0.405-2.784,1.491-2.784,1.491
			S142.48,163.301,142.88,163.513z"/>
	</g>
	<g>
		<path fill="#FFFFFF" d="M91.179,121.617l3.513-2.621c0,0,0.646,1.07,0.964,1.611c0.317,0.539,0.27,0.422,0.963,1.632
			c0.693,1.211,1.562,2.669,1.562,2.669s0.118-0.142,0.365-0.647s0.811-1.903,1.045-2.562c0.235-0.657,0.353-1.198,0.6-2.091
			c0.246-0.894,0.375-1.375,0.423-1.634c0.046-0.259,0.035-0.541-0.036-0.752c-0.07-0.212-0.141-0.494-0.399-0.658
			c-0.259-0.164-0.729-0.293-0.729-0.293s1.034-0.729,1.328-0.917c0.294-0.188,1.093-0.623,1.328-0.74s1.339-0.411,1.339-0.411
			s0.059,0.47,0.059,0.857c0,0.389,0.024,0.823-0.093,1.833c-0.119,1.011-0.282,2.304-0.776,3.714
			c-0.493,1.409-1.222,3.16-1.458,3.63c-0.234,0.47-0.34,0.646-0.34,0.646s0.211,0.13,0.881,0.317
			c0.669,0.188,2.69,0.705,3.618,0.894c0.929,0.188,2.562,0.446,3.079,0.517s0.834,0.083,0.834,0.083s0.106-0.776,0.282-2.068
			c0.177-1.293,0.318-2.303,0.435-3.678c0.117-1.374,0.2-3.502,0.235-4.605c0.035-1.104,0.082-2.056,0.023-2.456
			c-0.059-0.399-0.246-0.951-0.528-1.292s-0.529-0.671-0.529-0.671s2.233-0.657,2.562-0.739c0.329-0.083,1.14-0.235,1.14-0.235
			s0.411,0.658,0.587,0.94s0.881,1.162,1.375,1.763c0.494,0.599,0.998,1.233,1.821,2.103c0.822,0.87,2.608,2.715,3.923,3.937
			c1.317,1.222,2.997,2.785,3.596,3.23c0.599,0.446,0.939,0.611,1.175,0.647c0.234,0.035,0.517-0.06,0.517-0.06s0-0.963-0.164-3.278
			c-0.165-2.314-0.352-4.499-0.576-6.298c-0.224-1.798-0.588-4.183-0.682-4.724c-0.093-0.54-0.047-0.622-0.281-0.894
			c-0.235-0.27-0.787-1.057-0.787-1.057s3.5-0.563,4.3-0.693c0.799-0.129,1.986-0.364,2.421-0.41
			c0.434-0.048,1.535-0.088,2.16,0.022c0.91,0.159,1.221,0.288,1.82,0.522c0.6,0.234,1.307,0.642,1.777,1.229
			c0.47,0.588,0.705,1.021,0.823,1.551c0.117,0.528,0.199,1.288,0.083,1.938c-0.088,0.492-0.157,0.855-0.67,1.517
			c-0.469,0.604-1.163,1.069-1.562,1.328c-0.4,0.258-0.587,0.362-0.587,0.362s0.2,0.413,0.705,1.129
			c0.505,0.717,1.222,1.692,1.892,2.456c0.669,0.765,1.75,1.868,2.679,2.408c0.928,0.54,1.632,0.835,1.974,0.94
			c0.34,0.106,0.376,0.071,0.376,0.071s0-0.365,0.059-1.364c0.058-0.998,0.093-1.68,0.152-3.078
			c0.059-1.397,0.094-3.184,0.094-4.406c0-1.222,0-2.854-0.036-3.654c-0.035-0.798-0.059-1.48-0.117-1.703s-0.47-0.717-0.611-0.894
			c-0.141-0.176-0.423-0.541-0.423-0.541s2.55-0.446,2.938-0.505s0.54-0.081,0.54-0.081l0.834-0.136c0,0-0.035,3.989-0.07,5.304
			c-0.035,1.317-0.082,5.018-0.105,6.617c-0.023,1.597-0.035,3.524-0.035,3.524s1.728,0.07,2.326,0.059
			c0.6-0.012,1.623-0.129,2.351-0.282c0.728-0.152,1.317-0.316,1.479-0.411c0.166-0.095,0.812-0.952,1.387-1.751
			c0.576-0.799,1.527-2.103,2.092-3.009c0.563-0.904,1.598-2.572,2.127-3.548c0.529-0.975,0.803-1.495,1.15-2.268
			c0.106-0.235,0.201-0.739,0.224-0.893c0.024-0.153,0.059-0.564,0.024-0.799c-0.036-0.235-0.176-0.61-0.271-0.74
			s-0.235-0.307-0.235-0.307l4.312,0.106c0,0,0.012,0.623,0.082,1.045c0.07,0.425,0.354,2.116,0.635,3.315
			c0.282,1.197,1.045,4.336,1.574,6.015c0.528,1.681,1.188,3.572,1.527,4.43c0.34,0.858,0.576,1.434,0.682,1.646
			c0.105,0.211,0.505,0.635,0.669,0.751c0.165,0.117,0.342,0.177,0.342,0.177s0.669-1.681,1.009-2.654
			c0.342-0.977,0.859-2.516,1.176-3.796c0.317-1.281,0.518-2.21,0.74-3.619c0.223-1.41,0.353-2.42,0.389-2.82
			c0.035-0.399,0.012-0.729-0.024-0.822s-0.987-1.985-0.987-1.985s2.433,0.67,3.138,0.857s1.398,0.306,2.433,0.505
			c1.033,0.2,2.113,0.494,2.654,0.753c0.541,0.258,0.975,0.54,1.551,0.917c0.576,0.376,1.164,0.74,1.517,1.128
			c0.353,0.387,0.834,1.104,0.917,1.409c0.082,0.306,0.105,1.187-0.199,1.81c-0.307,0.623-0.506,0.951-1.117,1.456
			c-0.611,0.507-1.093,0.789-1.516,0.952c-0.424,0.165-0.635,0.2-0.635,0.2s0.189,0.093,0.623,0.388
			c0.435,0.293,1.152,0.821,1.551,1.21c0.4,0.388,0.717,0.764,0.904,1.328c0.189,0.562,0.234,1.033,0.247,1.269
			c0.012,0.235-0.024,0.506-0.177,0.916c-0.152,0.413-0.423,0.917-0.786,1.364c-0.364,0.446-0.517,0.692-1.034,1.139
			c-0.518,0.447-1.092,0.858-1.562,1.034c-0.471,0.177-1.047,0.341-1.528,0.389c-0.481,0.047-1.327,0.141-2.514-0.095
			s-2.69-0.682-3.373-0.977c-0.681-0.292-1.492-0.739-1.868-0.916c-0.375-0.176-0.669-0.375-0.669-0.375l-4.318,0.299
			c0,0-0.405-1.216-0.528-1.621s-1.022-2.943-1.234-3.543c-0.211-0.6-0.863-2.484-0.863-2.484s-1.463-0.422-1.903-0.511
			s-1.146-0.211-1.516-0.229s-1.71-0.019-1.71-0.019s-0.635,0.883-0.898,1.217c-0.264,0.335-0.564,0.741-0.846,1.198
			c-0.283,0.459-0.512,0.864-0.6,1.11c-0.088,0.247-0.123,0.354-0.105,0.794c0.018,0.439,0.105,0.828,0.229,1.093
			c0.123,0.263,0.193,0.493,0.193,0.493s-0.722-0.177-1.092-0.265s-1.339-0.316-1.991-0.388c-0.653-0.07-1.41-0.158-2.204-0.177
			c-0.793-0.018-2.238,0.008-3.102,0.054c-0.986,0.053-2.555,0.229-3.084,0.264c-0.529,0.036-0.969,0.088-0.969,0.088l0.018-0.264
			c0,0-0.071,0.07-0.458,0.176c-0.387,0.106-0.635,0.141-1.092,0.141c-0.458,0-0.793-0.034-1.058-0.087
			c-0.264-0.054-0.952-0.212-1.428-0.389c-0.476-0.176-1.356-0.616-2.027-1.128c-0.669-0.511-1.48-1.287-2.238-2.114
			c-0.758-0.829-2.604-3.053-2.604-3.053l-2.136,0.18c0,0-0.018,0.493,0.018,1.11s0.087,1.356,0.194,2.045
			c0.105,0.688,0.194,1.744,0.246,2.062c0.053,0.317,0.124,0.547,0.124,0.547l1.463,1.444c0,0-1.64,0.247-2.292,0.44
			c-0.651,0.194-1.92,0.564-2.679,0.882c-0.757,0.317-1.692,0.864-1.939,1.021c-0.247,0.16-0.493,0.335-0.493,0.335
			s-0.511-0.651-0.863-0.934s-1.516-1.339-2.309-2.062s-1.568-1.445-2.097-1.887c-0.529-0.44-0.793-0.74-0.793-0.74
			s-0.617,0.089-1.111,0.229c-0.493,0.142-1.181,0.335-1.833,0.616c-0.652,0.282-1.251,0.53-1.533,0.671
			c-0.282,0.141-0.405,0.211-0.405,0.211s-0.124,0.793-0.211,1.463c-0.088,0.67-0.247,1.498-0.247,2.115
			c0,0.616,0.035,0.97,0.07,1.233c0.036,0.265,0.106,0.441,0.106,0.441l0.987,0.687l-2.856,1.392c0,0-1.745-0.369-2.749-0.58
			c-1.004-0.212-2.309-0.53-3.561-0.864c-1.251-0.334-2.661-0.757-3.331-0.951c-0.669-0.194-1.163-0.388-1.163-0.388
			s0.582,0.951,1.057,1.779c0.476,0.829,1.674,2.803,2.274,4.195c0.599,1.393,0.952,2.098,1.216,3.313
			c0.265,1.216,0.388,2.133,0.406,2.854c0.017,0.723-0.018,1.498-0.194,2.361c-0.176,0.864-0.265,1.217-0.617,2.115
			c-0.352,0.899-0.616,1.551-0.987,2.062c-0.369,0.512-0.951,1.164-1.462,1.604c-0.511,0.441-1.198,0.952-2.379,1.376
			c-1.181,0.423-2.326,0.792-3.084,0.934c-0.758,0.141-1.356,0.211-2.079,0.211c-0.724,0-1.428-0.104-2.133-0.265
			c-0.705-0.158-1.674-0.493-2.539-1.056c-0.863-0.565-1.744-1.04-2.449-2.045c-0.705-1.005-0.953-1.463-1.199-2.169
			c-0.247-0.704-0.546-1.814-0.599-2.644c-0.053-0.828-0.071-1.515,0.017-2.097c0.089-0.581,0.282-1.34,0.512-1.833
			c0.229-0.493,0.81-1.357,1.216-1.745c0.405-0.388,0.997-0.999,1.561-1.352c0.564-0.353,1.382-0.781,1.928-0.938
			c0.547-0.159,1.393-0.3,1.957-0.265c0.564,0.034,1.269,0.114,1.709,0.221c0.441,0.104,1.287,0.343,1.762,0.607
			c0.476,0.265,0.969,0.582,1.305,0.952c0.335,0.369,0.705,0.827,0.881,1.374c0.177,0.547,0.335,1.375,0.247,1.887
			c-0.088,0.511-0.194,1.057-0.547,1.479c-0.353,0.424-0.775,0.847-1.216,1.058c-0.44,0.212-0.775,0.3-1.093,0.3
			c-0.317,0-0.687-0.071-1.233-0.229s-1.639-0.723-1.639-0.723s0.723-0.229,1.18-0.634c0.459-0.406,0.946-0.94,1.076-1.41
			c0.163-0.592,0.247-1.251,0.105-1.886c-0.141-0.635-0.475-1.366-0.722-1.71c-0.27-0.375-0.775-0.705-1.11-0.811
			c-0.335-0.106-0.987-0.15-1.454-0.114c-0.318,0.023-1.155,0.202-1.507,0.36c-0.353,0.159-0.631,0.314-0.981,0.547
			c-0.211,0.14-0.482,0.406-0.675,0.758c-0.152,0.276-0.406,0.758-0.547,1.498s-0.265,1.674-0.212,2.345
			c0.053,0.669,0.353,2.044,0.67,2.802c0.317,0.758,0.652,1.728,1.163,2.502c0.511,0.776,1.075,1.445,1.551,1.869
			c0.476,0.422,1.287,1.127,1.957,1.479c0.669,0.354,1.017,0.642,2.191,0.854c1.14,0.206,1.527,0.205,2.073,0.134
			s0.917-0.158,1.71-0.723c0.793-0.564,1.709-1.586,2.027-2.203c0.317-0.617,0.828-1.867,0.987-2.502
			c0.158-0.636,0.388-2.062,0.282-3.331c-0.106-1.27-0.371-2.732-0.952-4.229c-0.581-1.499-1.198-2.838-1.868-4.02
			c-0.669-1.18-1.427-2.484-2.591-4.212c-1.163-1.727-1.815-2.714-2.573-3.771s-1.075-1.498-1.287-1.622
			c-0.211-0.123-0.511-0.231-0.652-0.246C91.574,121.617,91.179,121.617,91.179,121.617z M112.199,119.996l3.125-1.34l-2.855-3.185
			L112.199,119.996z M128.813,114.203c0.2,0,0.94,0,1.469-0.059s0.921-0.214,1.427-0.46c0.505-0.248,0.75-0.41,1.264-0.927
			c0.504-0.508,0.576-0.752,0.693-1.34c0.117-0.587-0.071-1.374-0.224-1.763c-0.153-0.388-0.518-0.739-0.822-0.986
			c-0.306-0.247-0.741-0.481-1.07-0.623c-0.329-0.141-0.963-0.199-1.527-0.164c-0.564,0.034-1.223,0.164-1.634,0.235
			c-0.411,0.07-0.67,0.246-0.67,0.246l0.635,5.827C128.355,114.19,128.614,114.203,128.813,114.203z M157.001,115.414l3.454,0.47
			l-1.104-4.501L157.001,115.414z M173.309,116.987c0.27,0.071,1.234,0.271,1.622,0.294s1.058-0.047,1.551-0.188
			c0.493-0.142,1.022-0.411,1.352-0.717s0.622-0.928,0.752-1.292s0.094-0.812-0.012-1.199c-0.105-0.389-0.317-0.787-0.553-1.104
			c-0.235-0.316-0.669-0.588-1.032-0.729c-0.365-0.141-0.988-0.282-1.518-0.423c-0.527-0.142-1.397-0.223-1.397-0.223l-1.269,5.417
			C172.805,116.824,173.039,116.918,173.309,116.987z M170.983,124.86c0.259,0.094,0.928,0.388,1.421,0.528
			c0.494,0.141,1.094,0.305,1.363,0.33c0.271,0.023,0.693,0.058,1.093,0.07c0.399,0.011,1.022-0.013,1.257-0.06
			c0.235-0.047,0.576-0.177,0.822-0.317c0.248-0.142,0.529-0.364,0.671-0.529c0.141-0.164,0.258-0.398,0.328-0.574
			c0.071-0.178,0.188-0.471,0.259-0.718c0.07-0.246,0.188-0.717,0.223-0.975c0.035-0.259-0.035-0.847-0.094-1.129
			c-0.059-0.281-0.105-0.469-0.211-0.622c-0.105-0.152-0.541-0.6-0.729-0.752s-0.553-0.471-0.787-0.588s-0.646-0.234-0.893-0.317
			c-0.247-0.082-1-0.317-1.41-0.423c-0.412-0.105-1.023-0.199-1.281-0.224c-0.259-0.022-0.693,0.07-0.693,0.07l-1.797,6.028
			C170.525,124.66,170.725,124.767,170.983,124.86z"/>
	</g>
</g>
</svg>
