<?xml version="1.0" encoding="utf-8"?>
<!-- Generator: Adobe Illustrator 14.0.0, SVG Export Plug-In . SVG Version: 6.00 Build 43363)  -->
<!DOCTYPE svg PUBLIC "-//W3C//DTD SVG 1.1//EN" "http://www.w3.org/Graphics/SVG/1.1/DTD/svg11.dtd">
<svg version="1.1" id="Layer_1" xmlns="http://www.w3.org/2000/svg" xmlns:xlink="http://www.w3.org/1999/xlink" x="0px" y="0px"
	 width="283.46px" height="283.46px" viewBox="0 0 283.46 283.46" enable-background="new 0 0 283.46 283.46" xml:space="preserve">
<circle fill="#F6CBCE" cx="141.645" cy="142.455" r="97.827"/>
<g>
	<path fill="#FFFFFF" d="M94.454,188.888c-0.118-1.834-0.264-4.086-0.25-5.425h-0.049c-0.441,1.33-0.945,2.751-1.648,4.571
		l-2.569,6.656h-0.604l-2.41-6.506c-0.699-1.907-1.217-3.373-1.585-4.722h-0.045c-0.032,1.439-0.118,3.568-0.263,5.598l-0.387,5.63
		h-0.849l0.894-12.239h0.99l2.634,7.054c0.576,1.558,1.008,2.788,1.352,3.969h0.041c0.313-1.131,0.75-2.316,1.376-3.954l2.729-7.068
		h1.034l0.823,12.239h-0.854L94.454,188.888z"/>
	<path fill="#FFFFFF" d="M103.887,192.62c0,0.69,0.027,1.402,0.127,2.07h-0.794l-0.128-1.248h-0.041
		c-0.423,0.671-1.394,1.447-2.778,1.447c-1.753,0-2.565-1.235-2.565-2.397c0-2.011,1.771-3.223,5.317-3.187v-0.231
		c0-0.863-0.169-2.583-2.229-2.569c-0.764,0-1.558,0.204-2.188,0.649l-0.272-0.627c0.795-0.54,1.767-0.753,2.556-0.753
		c2.516,0,2.997,1.889,2.997,3.445V192.62z M103.024,190.032c-1.898-0.054-4.404,0.231-4.404,2.324c0,1.253,0.826,1.815,1.734,1.815
		c1.452,0,2.278-0.898,2.578-1.747c0.063-0.187,0.092-0.372,0.092-0.522V190.032z M101.1,181.783c0.926,0,1.638,0.717,1.638,1.644
		c0,0.907-0.78,1.603-1.656,1.603c-0.958,0-1.689-0.713-1.689-1.603c0-0.908,0.703-1.644,1.689-1.644H101.1z M101.049,182.328
		c-0.572,0-0.944,0.499-0.944,1.099c0,0.536,0.409,1.058,0.963,1.058c0.585,0,0.994-0.485,0.994-1.08
		c0-0.613-0.409-1.076-0.994-1.076H101.049z"/>
	<path fill="#FFFFFF" d="M106.942,188.589c0-0.872-0.026-1.771-0.071-2.615h0.799l0.035,1.771h0.051
		c0.381-1.103,1.28-1.97,2.474-1.97c0.123,0,0.245,0.013,0.354,0.04v0.827c-0.149-0.028-0.272-0.028-0.436-0.028
		c-1.194,0-2.053,1.041-2.288,2.438c-0.046,0.254-0.073,0.545-0.073,0.826v4.812h-0.862L106.942,188.589z"/>
	<path fill="#FFFFFF" d="M114.134,184.053v1.921h2.483v0.699h-2.483v5.665c0,1.108,0.345,1.803,1.28,1.803
		c0.45,0,0.768-0.059,0.989-0.137l0.104,0.668c-0.281,0.118-0.676,0.208-1.203,0.208c-0.635,0-1.162-0.199-1.502-0.617
		c-0.396-0.458-0.531-1.188-0.531-2.079v-5.511h-1.471v-0.699h1.471v-1.603L114.134,184.053z"/>
	<path fill="#FFFFFF" d="M118.796,190.236c0,2.783,1.516,3.886,3.313,3.886c1.271,0,1.93-0.254,2.425-0.494l0.222,0.681
		c-0.335,0.182-1.23,0.559-2.751,0.559c-2.506,0-4.063-1.825-4.063-4.377c0-2.91,1.667-4.73,3.919-4.73
		c2.855,0,3.396,2.684,3.396,3.94c0,0.246,0,0.382-0.027,0.55L118.796,190.236z M124.352,189.546
		c0.023-1.217-0.484-3.068-2.605-3.068c-1.916,0-2.746,1.725-2.905,3.068H124.352z"/>
	<path fill="#FFFFFF" d="M127.687,188.057c0-0.799-0.028-1.398-0.073-2.083h0.804l0.063,1.575h0.036
		c0.477-0.98,1.57-1.774,3.001-1.774c0.831,0,3.042,0.426,3.042,3.69v5.226h-0.863v-5.148c0-1.589-0.612-3.028-2.415-3.028
		c-1.226,0-2.27,0.876-2.614,2.007c-0.064,0.209-0.118,0.503-0.118,0.776v5.394h-0.862V188.057z"/>
	<path fill="#FFFFFF" d="M137.657,182.592c0.708-0.132,1.584-0.236,2.615-0.236c1.462,0,2.561,0.377,3.236,1.034
		c0.591,0.573,0.94,1.376,0.94,2.397c0,1.054-0.295,1.839-0.849,2.447c-0.781,0.899-2.098,1.366-3.596,1.366
		c-0.55,0-1.049-0.014-1.484-0.145v5.234h-0.863V182.592z M138.521,188.697c0.426,0.132,0.962,0.177,1.552,0.177
		c2.193,0,3.505-1.062,3.505-3.001c0-1.924-1.395-2.791-3.337-2.791c-0.789,0-1.394,0.077-1.72,0.145V188.697z"/>
	<path fill="#FFFFFF" d="M146.658,190.236c0,2.783,1.517,3.886,3.314,3.886c1.271,0,1.929-0.254,2.424-0.494l0.223,0.681
		c-0.336,0.182-1.23,0.559-2.752,0.559c-2.506,0-4.062-1.825-4.062-4.377c0-2.91,1.666-4.73,3.918-4.73
		c2.855,0,3.396,2.684,3.396,3.94c0,0.246,0,0.382-0.026,0.55L146.658,190.236z M152.215,189.546
		c0.022-1.217-0.486-3.068-2.605-3.068c-1.916,0-2.747,1.725-2.906,3.068H152.215z"/>
	<path fill="#FFFFFF" d="M155.562,188.589c0-0.872-0.027-1.771-0.073-2.615h0.8l0.036,1.771h0.05c0.382-1.103,1.28-1.97,2.475-1.97
		c0.122,0,0.245,0.013,0.354,0.04v0.827c-0.149-0.028-0.272-0.028-0.436-0.028c-1.193,0-2.052,1.041-2.289,2.438
		c-0.045,0.254-0.071,0.545-0.071,0.826v4.812h-0.863L155.562,188.589z"/>
	<path fill="#FFFFFF" d="M160.761,193.546c0.468,0.295,1.171,0.604,1.962,0.604c1.37,0,2.024-0.754,2.024-1.661
		c0-0.958-0.576-1.472-1.834-1.966c-1.426-0.554-2.21-1.331-2.21-2.388c0-1.259,0.989-2.36,2.683-2.36
		c0.804,0,1.479,0.24,1.934,0.554l-0.346,0.703c-0.299-0.213-0.862-0.526-1.725-0.526c-1.108,0-1.698,0.713-1.698,1.507
		c0,0.913,0.618,1.299,1.808,1.789c1.407,0.558,2.242,1.257,2.242,2.578c0,1.493-1.158,2.501-2.941,2.501
		c-0.84,0-1.634-0.24-2.216-0.603L160.761,193.546z"/>
	<path fill="#FFFFFF" d="M172.317,182.451h0.862v6.201h0.063c0.354-0.482,0.723-0.899,1.044-1.281l4.336-4.92h1.067l-4.658,5.197
		l5.094,7.042h-1.044l-4.645-6.451l-1.258,1.38v5.071h-0.862V182.451z"/>
	<path fill="#FFFFFF" d="M186.982,192.62c0,0.69,0.026,1.402,0.127,2.07h-0.795l-0.126-1.248h-0.041
		c-0.423,0.671-1.395,1.447-2.779,1.447c-1.752,0-2.564-1.235-2.564-2.397c0-2.011,1.771-3.223,5.315-3.187v-0.231
		c0-0.863-0.167-2.583-2.229-2.569c-0.763,0-1.557,0.204-2.188,0.649l-0.272-0.627c0.794-0.54,1.766-0.753,2.556-0.753
		c2.515,0,2.996,1.889,2.996,3.445V192.62z M186.119,190.032c-1.896-0.054-4.402,0.231-4.402,2.324c0,1.253,0.825,1.815,1.733,1.815
		c1.453,0,2.279-0.898,2.579-1.747c0.063-0.187,0.09-0.372,0.09-0.522V190.032z M182.655,184.472c-0.398,0-0.657-0.342-0.657-0.709
		c0-0.373,0.299-0.709,0.689-0.709c0.381,0,0.662,0.323,0.662,0.709c0,0.367-0.254,0.709-0.676,0.709H182.655z M185.738,184.472
		c-0.399,0-0.658-0.342-0.658-0.709c0-0.373,0.3-0.709,0.689-0.709c0.382,0,0.663,0.323,0.663,0.709
		c0,0.367-0.254,0.709-0.676,0.709H185.738z"/>
	<path fill="#FFFFFF" d="M190.025,181.797h0.863v12.894h-0.863V181.797z"/>
	<path fill="#FFFFFF" d="M194.04,181.797h0.862v12.894h-0.862V181.797z"/>
	<path fill="#FFFFFF" d="M203.474,192.62c0,0.69,0.028,1.402,0.128,2.07h-0.795l-0.127-1.248h-0.041
		c-0.422,0.671-1.394,1.447-2.777,1.447c-1.753,0-2.566-1.235-2.566-2.397c0-2.011,1.771-3.223,5.316-3.187v-0.231
		c0-0.863-0.168-2.583-2.229-2.569c-0.764,0-1.558,0.204-2.188,0.649l-0.272-0.627c0.794-0.54,1.767-0.753,2.557-0.753
		c2.515,0,2.995,1.889,2.995,3.445V192.62z M202.611,190.032c-1.897-0.054-4.403,0.231-4.403,2.324c0,1.253,0.827,1.815,1.734,1.815
		c1.453,0,2.279-0.898,2.579-1.747c0.062-0.187,0.09-0.372,0.09-0.522V190.032z"/>
</g>
<g>
	<path fill-rule="evenodd" clip-rule="evenodd" fill="#FFFFFF" d="M166.781,89.063c3.771-3.493,9.465,10.003,9.756,12.177
		c0.703,5.275,7.876,9.625,8.25,14.41c0.078,0.955,3.187,4.088,3.935,5.132c1.292,1.797,2.509,3.775,3.978,5.857
		c1.861,2.644,10.124,10.027,6.274,15.14c-3.919,5.208-20.159-3.643-24.956-4.839c-2.76-0.688-20.01-3.239-17.989,0.816
		c-2.678,0.513-1.328,8.855-3.572,9.152c-2.213,0.293-5.881,15.982,1.979,16.599c7.867,0.634,14.5,1.161,16.598,6.969
		c-4.479,1.32-12.44-1.074-17.338-0.671c-8.021,0.657-18.269-0.361-26.153-2.275c-3.732-0.903-12.572-0.361-14.594-0.093
		c-0.524,0.071-2.687-2.835-3.097-3.281c9.851-4.536,21.156-1.749,31.168-2.585c2.529-0.213,3.556-4.067,3.785-5.479
		c1.023-6.365,2.614-10.799,4.137-16.007c1.665-5.789-0.209-6.041-7.103-5.948c-9.938,0.133-20.553,1.579-30.303,2.694
		c-2.637,0.296-11.548,0.891-12.826-0.327c-0.122-0.117-3.245-3.65-1.058-3.941c1.003-0.137,1.739-2.804,3.292-3.275
		c3.408-1.047,5.401-4.105,9.362-5.864c3.927-1.755,8.002-4.241,13.228-6.249c6.298-2.441,9.444-5.947,12.881-8.057
		c3.884-2.386,10.463-4.372,14.994-7.322c1.234-0.805,2.89-3.371,4.882-4.336C161.43,95.004,163.43,92.148,166.781,89.063
		L166.781,89.063z M139.568,114.181c-5.1,1.196-6.794,3.698-11.292,5.787c-4.202,1.947-15.573,5.673-17.8,8.936
		c-3.291,4.814,12.336,1.9,15.94,1.56c6.54-0.616,14.599-2.664,21.27-1.658c6.888,1.036,6.367-4.397,7.857-6.621
		c0.594-0.883,0.208-0.298,0.862-1.532c1.802-3.395-4.431-5.146-3.682-4.864C147.853,114.58,144.161,113.104,139.568,114.181
		L139.568,114.181z M163.935,117.177c-1.137,0.849-5.882,12.13-2.901,12.088c10.016-0.145,20.024,8.2,30.826,7.052
		c-0.376-5.842-4.511-8.011-6.715-11.685c-0.393-2.723-2.692-4.547-3.972-5.863C180.431,113.897,167.25,114.719,163.935,117.177
		L163.935,117.177z M160.079,98.591c-1.52,1.299-10.743,6.44-10.23,8.96c0.207,1.021,8.391,1.475,9.65,1.151
		c-0.002,0.111,1.82-3.278,1.804-3.255c0.206-0.303,5.541-10.861-0.941-7.065l8.146,5.216c-1.388,2.654-0.601,11.472,4.978,5.373
		c1.488-1.63-1.796-7.609-4.978-5.373l-8.146-5.216L160.079,98.591z"/>
</g>
</svg>
