<?xml version="1.0" encoding="utf-8"?>
<!-- Generator: Adobe Illustrator 14.0.0, SVG Export Plug-In . SVG Version: 6.00 Build 43363)  -->
<!DOCTYPE svg PUBLIC "-//W3C//DTD SVG 1.1//EN" "http://www.w3.org/Graphics/SVG/1.1/DTD/svg11.dtd">
<svg version="1.1" id="Layer_1" xmlns="http://www.w3.org/2000/svg" xmlns:xlink="http://www.w3.org/1999/xlink" x="0px" y="0px"
	 width="283.46px" height="283.46px" viewBox="0 0 283.46 283.46" enable-background="new 0 0 283.46 283.46" xml:space="preserve">
<circle fill="#F6CBCE" cx="141.432" cy="142.242" r="97.827"/>
<path fill="#FFFFFF" d="M115.821,130.964c5.22,5.673,13.461,8.104,21.261,5.537c3.415-1.124,6.328-3.068,8.596-5.542
	L115.821,130.964z M175.732,109.457c1.066-0.249,1.785-0.42,2.016-0.479c1.586-0.4,2.154,1.141,2.154,1.141l2.881,7.65
	c0.54,1.972-0.972,1.979-0.972,1.979l-6.021,1.575c0,0-1.184,0.696-1.821-1.24c-0.642-1.939-2.079-1.282-2.079-1.282l-9.09,2.16
	c-0.697,0.15-1.75,0.27-2.582,1.212c-0.67,0.767-1.578,3.697-1.578,3.697l-0.012-0.004c-2.703,8.714-9.438,16.031-18.76,19.108
	c-15.314,5.033-31.808-3.297-36.841-18.611c-5.036-15.309,3.291-31.801,18.602-36.836c9.321-3.064,19.085-1.185,26.426,4.219
	l0.012-0.021c0,0,2.462,1.87,3.465,2.042c1.238,0.212,2.15-0.263,2.797-0.558l8.598-3.656c0,0,1.549-0.326,0.913-2.264
	c-0.638-1.938,0.729-2.082,0.729-2.082l5.773-2.306c0,0,1.231-0.887,1.964,1.012l2.221,7.87c0,0,0.452,1.575-1.057,2.192
	c-1.518,0.618-25.295,10.925-25.295,10.925l-0.008,0.002c-4.758-7.964-14.572-11.932-23.756-8.911
	c-5.82,1.915-10.188,6.218-12.374,11.465L175.732,109.457z M111.061,112.423c-0.256,1.045-0.432,2.114-0.52,3.198l40.417,0.01
	c-0.013-0.141-0.025-0.284-0.041-0.427h-0.012c0,0,5.824-1.342,12.054-2.782L111.061,112.423z M110.521,118.597
	c0.071,1.059,0.227,2.126,0.473,3.189h39.51c0.242-1.043,0.401-2.11,0.473-3.189H110.521z M111.926,124.766
	c0.454,1.135,0.998,2.21,1.626,3.217l34.387-0.002c0.639-1.023,1.184-2.099,1.632-3.215H111.926z"/>
<path fill="#FFFFFF" d="M181.07,152.582c0,0,2.523,1.841,3.265,5.283l-6.663,3.979c0,0-2.139-2.221-3.339-5.275L181.07,152.582z"/>
<path fill="#FFFFFF" d="M122.482,161.642c-1.735,0-3.142-1.317-3.142-2.933c0-1.628,1.406-2.944,3.142-2.944l2.053-0.162
	c1.828,0,3.306,1.39,3.306,3.106c0,1.711-1.478,3.097-3.306,3.097L122.482,161.642z"/>
<path fill="#FFFFFF" d="M178.886,153.746l4.288-5.056c0.422-0.551-0.229-1.917-1.441-2.991c-1.219-1.052-2.729-1.46-3.096-0.998
	l-4.63,4.773c0,0-0.259,1.135,1.801,2.949C177.863,154.236,178.886,153.746,178.886,153.746"/>
<path fill="#FFFFFF" d="M182.137,131.122l1.271-6.354c0.101-0.691-1.068-1.557-2.571-1.878c-1.498-0.318-2.953,0.073-3.052,0.649
	l-1.691,6.287c0,0,0.538,1.165,2.462,1.596C180.482,131.852,182.076,131.454,182.137,131.122"/>
<path fill="#FFFFFF" d="M169.848,140.369c0,0,2.887-1.004,6.052,0.385l-0.597,7.137c0,0-2.968,0.467-6.09-0.323L169.848,140.369z"/>
<path fill="#FFFFFF" d="M162.117,151.381c0,0,0.199-2.913,2.686-5.096l6.541,3.436c0,0-0.725,2.761-2.648,5.145L162.117,151.381z"/>
<path fill="#FFFFFF" d="M158.344,155.961c0,0,1.181,2.664-0.006,5.759l-8.377-0.021c0,0-0.642-2.787-0.053-5.791L158.344,155.961z"
	/>
<path fill="#FFFFFF" d="M169.432,155.866c0,0,1.18,2.665-0.008,5.752l-7.873-0.022c0,0-0.641-2.779-0.052-5.781L169.432,155.866z"/>
<path fill="#FFFFFF" d="M130.36,154.021c0,0,2.693-1.04,5.75-0.03l-0.192,7.607c0,0-2.724,0.266-5.783,0.094L130.36,154.021z"/>
<path fill="#FFFFFF" d="M115.925,161.618l-5.778-0.367c-0.752-0.002-1.757-1.116-1.753-2.595c0.011-1.472,1.033-2.75,1.783-2.745
	l5.781-0.22c0,0,1.949,0.104,2.088,3.021C118.187,161.635,115.925,161.618,115.925,161.618"/>
<path fill="#FFFFFF" d="M140.645,161.969l5.381-0.326c0.794,0,2.247-0.909,2.204-2.834c-0.044-1.818-1.438-2.567-2.237-2.562
	l-5.384-0.275c0,0-2.161,0.107-2.323,2.397C138.143,160.407,138.932,161.697,140.645,161.969"/>
<path fill="#FFFFFF" d="M158.249,154.366l-3.231,1.108c-2.282,0.785-3.285-1.403-3.285-1.403c-0.654-2.473,1.645-3.32,1.645-3.32
	l2.453-1.339c0,0,2.879-1.524,4.195,1.271C161.088,152.941,158.249,154.366,158.249,154.366"/>
<path fill="#FFFFFF" d="M177.145,134.496c0,0,2.84-1.008,5.954,0.377l-0.54,7.57c0,0-2.922,0.463-5.988-0.327L177.145,134.496z"/>
<path fill="#FFFFFF" d="M90.218,176.223v1.852h0.047c0.689-1.52,2.469-2.207,3.895-2.207c3.751,0,5.557,3.061,5.557,6.481
	c0,4.892-3.04,6.673-5.818,6.673c-1.354,0-2.351-0.546-3.182-1.591v5.463h-4.939v-16.671H90.218z M94.777,182.421
	c0-1.971-0.854-2.897-2.161-2.897c-1.187,0-1.994,1.14-1.994,2.801c0,1.733,0.736,2.922,2.019,2.922
	C93.946,185.246,94.777,184.13,94.777,182.421"/>
<path fill="#FFFFFF" d="M108.455,175.865c4.394,0,7.101,2.59,7.101,6.459c0,4.56-3.086,6.697-7.077,6.697
	c-3.989,0-7.076-2.185-7.076-6.436C101.403,178.266,104.252,175.865,108.455,175.865 M106.342,182.324
	c0,2.352,0.878,3.374,2.137,3.374c1.33,0,2.138-1.022,2.138-3.374c0-1.827-0.808-3.205-2.091-3.134
	C106.839,179.19,106.342,180.924,106.342,182.324"/>
<rect x="117.592" y="171.568" fill="#FFFFFF" width="4.939" height="17.096"/>
<path fill="#FFFFFF" d="M131.317,183.893l2.161-7.67h4.749l-3.99,11.611c-1.305,3.848-1.827,5.059-6.221,5.059
	c-0.901,0-1.804-0.095-2.185-0.095v-3.443c0.356,0,0.688,0.022,1.02,0.022c1.544,0,1.9-0.451,1.402-1.828l-4.085-11.326h4.963
	L131.317,183.893z"/>
<polygon fill="#FFFFFF" points="144.733,185.176 144.733,188.664 139.795,188.664 139.795,171.568 144.733,171.568 144.733,180.022 
	147.893,176.223 153.663,176.223 149.056,181.043 154.257,188.664 148.32,188.664 145.662,184.248 "/>
<path fill="#FFFFFF" d="M159.179,183.559c0,1.473,1.14,2.446,2.446,2.446c0.783,0,1.496-0.355,1.852-1.091h4.727
	c-0.855,3.086-3.99,4.107-6.886,4.107c-3.991,0-7.077-2.28-7.077-6.46c0-4.084,3.063-6.696,7.054-6.696
	c4.604,0,7.384,3.184,7.313,7.693H159.179z M163.668,181.043c0-1.142-1.021-2.162-2.186-2.162c-1.473,0-2.304,0.832-2.304,2.162
	H163.668z"/>
<path fill="#FFFFFF" d="M170.412,176.223h4.535v1.852c0.617-0.949,2.161-2.207,3.941-2.207c2.232,0,3.467,0.949,4.062,2.277
	c1.068-1.494,2.47-2.277,4.298-2.277c3.633,0,4.773,2.041,4.773,5.438v7.361h-4.939v-6.342c0-1.826-0.357-2.562-1.662-2.562
	c-1.449,0-1.734,1.258-1.734,2.754v6.15h-4.939v-6.342c0-1.826-0.355-2.562-1.662-2.562c-1.447,0-1.732,1.258-1.732,2.754v6.15
	h-4.939V176.223z"/>
<path fill="#FFFFFF" d="M194.562,171.116h4.938v3.515h-4.938V171.116z M194.562,176.222h4.938v12.442h-4.938V176.222z"/>
</svg>
