<?xml version="1.0" encoding="utf-8"?>
<!-- Generator: Adobe Illustrator 14.0.0, SVG Export Plug-In . SVG Version: 6.00 Build 43363)  -->
<!DOCTYPE svg PUBLIC "-//W3C//DTD SVG 1.1//EN" "http://www.w3.org/Graphics/SVG/1.1/DTD/svg11.dtd">
<svg version="1.1" id="Layer_1" xmlns="http://www.w3.org/2000/svg" xmlns:xlink="http://www.w3.org/1999/xlink" x="0px" y="0px"
	 width="283.46px" height="283.46px" viewBox="0 0 283.46 283.46" enable-background="new 0 0 283.46 283.46" xml:space="preserve">
<circle fill="#F6CBCE" cx="141.504" cy="141.788" r="97.828"/>
<g>
	<path fill="#FFFFFF" d="M113.788,144.508c0.379,3.354,2.183,11.646,3.511,11.831c0.854,0.095,2.276-2.235,2.562-4.191
		c-0.758-1.118-2.372-4.191-0.19-7.267c2.563,0.279,2.183,3.82,2.277,6.057c1.044,0.837,2.846,0.932,4.364,0.932
		c1.044-0.375,1.328,1.303,0.38,1.582c-2.275,0.373-3.416,0.186-5.027-0.466c-0.474,1.771-1.233,3.168-2.089,4.193
		c-1.707,1.955-4.174,1.491-5.123-1.025c-0.947-2.423-2.466-8.386-2.562-11.646C111.796,143.111,113.6,143.203,113.788,144.508z"/>
	<path fill="#FFFFFF" d="M137.508,155.129c-1.806,1.77-3.132,3.634-6.264,3.541c-2.751,0-4.27-2.609-4.364-5.404
		c-0.096-1.957,0.571-4.1,1.329-5.217c1.139-2.051,3.795-3.729,5.407-1.771c1.614,2.329-2.277,7.641-4.555,8.57
		c0.477,1.398,1.233,1.863,2.562,1.958c1.709,0.187,3.131-1.212,4.841-3.169c1.043-1.209,1.138-1.489,2.369-1.396
		C139.69,153.357,138.171,154.475,137.508,155.129z M132.193,147.303c-0.475-0.652-3.51,1.677-3.415,5.59
		C129.728,152.52,133.142,148.606,132.193,147.303z"/>
	<path fill="#FFFFFF" d="M140.259,158.391c-0.667-0.188-0.952-0.188-1.141-0.934c-0.475-3.168-1.232-6.428-0.761-10.062
		c0.286-0.837,1.71-1.211,1.901,0c0,0.561-0.191,1.025-0.191,1.958c0.947-2.982,3.32-6.895,7.4-7.174
		c0.662-0.093,1.138,1.49,0.565,1.49c-5.689,1.306-7.019,7.64-7.207,13.603C140.73,157.83,140.445,158.016,140.259,158.391z
		 M150.219,158.109c-0.759,0.371-1.424,0.561-2.186,0l-1.135-11.738c0-1.211,0.569-1.304,1.613-1.304
		c0.948,0.187,0.568,1.024,0.568,2.889c0.759-2.981,1.328-7.454,5.124-6.895c2.086,0.653,1.611,3.634,2.845,4.937
		c1.993,0.652,1.613,2.423,0.568,2.33c-3.889-0.372-2.371-4.377-4.172-5.589c-1.52,0.464-2.278,3.912-2.658,5.31
		c-0.476,1.863-0.853,4.844-0.948,6.521L150.219,158.109z"/>
	<path fill="#FFFFFF" d="M168.811,155.129c-1.802,1.77-3.133,3.634-6.262,3.541c-2.751,0-4.271-2.609-4.364-5.404
		c-0.096-1.957,0.571-4.1,1.328-5.217c1.14-2.051,3.798-3.729,5.409-1.771c1.613,2.329-2.278,7.641-4.556,8.57
		c0.477,1.398,1.234,1.863,2.562,1.958c1.707,0.187,3.131-1.212,4.841-3.169c1.041-1.209,1.137-1.489,2.369-1.396
		C170.993,153.357,169.476,154.475,168.811,155.129z M163.498,147.303c-0.473-0.652-3.511,1.677-3.414,5.59
		C161.032,152.52,164.448,148.606,163.498,147.303z"/>
	<path fill="#FFFFFF" d="M173.648,154.942c1.611-1.396,2.846-2.423,4.365-2.98c1.325-0.561,1.233,1.396,0.759,1.675
		c-1.616,0.933-2.469,0.838-3.89,2.517c1.232,1.491,2.941,3.913-0.572,5.87c-1.704,0.931-4.268,0.838-4.553-0.561
		c-0.284-1.676,1.896-4.191,2.563-5.124c-1.897-2.142-4.176-5.401-3.416-8.756c0.475-2.235,1.707-4.192,4.269-3.914
		c1.992,1.862-0.473,6.708-1.424,8.759C172.036,152.985,173.363,154.664,173.648,154.942z M170.802,150.75
		c0.286-0.467,0.665-1.396,1.044-2.609c0.379-1.209,0.761-2.701,0.476-2.887c-1.141,0.094-1.709,1.396-1.897,2.887
		C170.232,149.074,170.424,150.098,170.802,150.75z M173.837,157.83c-1.043,1.118-1.897,2.514-1.991,3.074
		c-0.096,0.373,0.379,0.279,1.71-0.467C174.598,159.879,174.977,159.227,173.837,157.83z"/>
	<path fill="#FFFFFF" d="M190.345,123.547c0.854,0.188,1.138,0.188,1.138,1.025c-0.189,0.093-0.757,0.466-1.327,0.466
		c-3.511-0.092-9.013,0.652-11.954,1.211c0,7.081-0.097,22.638,3.701,28.787c1.991,3.355,3.794,0.373,5.788-2.516
		c0.853-1.304,2.088-0.65,1.23,1.117c-1.896,4.101-5.503,6.801-8.443,2.982c-4.648-6.707-4.174-21.986-4.27-29.904
		c-1.138,0.093-2.466,0.838-3.51,1.025c-1.139,0.186-0.759-0.932-0.097-1.398c0.854-0.652,2.279-1.119,3.702-1.49
		c0.19-1.585,0.19-2.888,0.286-4.473c0.092-1.211,0-3.726,1.139-4.378c1.517,0.466,0.758,2.515,0.758,4.472
		c-0.096,1.676-0.189,2.608-0.189,4.099C178.581,124.572,187.595,122.988,190.345,123.547z"/>
	<path fill="#FFFFFF" d="M196.416,148.328c0,2.793,0.094,7.825,1.233,7.918c1.329-0.093,1.899-2.422,2.373-3.727
		c0.19-0.558,1.709-1.025,1.518,0.094c-0.38,2.051-1.518,4.192-2.848,4.938c-2.56,1.305-3.604-1.585-3.889-3.54
		c-0.569,1.583-3.796,4.659-6.168,3.913c-1.801-0.561-2.37-3.82-0.094-6.895c1.898-2.516,4.175-3.073,6.071-1.771
		C194.995,147.396,196.416,146.465,196.416,148.328z M192.812,154.475c0.759-0.929,1.422-2.42,1.801-3.537
		c-1.991-1.307-3.131-0.654-4.458,1.117c-1.234,1.582-1.896,3.445-1.045,4.564C189.68,157.179,191.862,155.594,192.812,154.475z"/>
	<path fill="#FFFFFF" d="M205.616,132.491c0.19-2.609,0-14.534,4.365-14.44c3.034,2.795,2.848,9.689,2.469,13.601
		c-0.478,5.31-1.805,10.527-3.323,15.65c-0.476,1.584-0.853,2.701-0.19,4.566c0.383,1.303,0.949,2.888,1.806,3.539
		c1.23,0.838,3.131-2.143,3.887-2.889c1.141-1.025,1.993-0.186,0.948,1.584c-1.041,1.862-2.465,2.795-3.319,3.26
		c-2.938,1.678-4.648-2.98-4.932-4.378c-0.951,1.862-2.754,5.87-5.503,5.405c-1.709-0.281-2.562-2.982-1.804-6.057
		c0.853-3.633,2.752-6.057,5.979-5.123C205.331,143.203,205.331,137.615,205.616,132.491z M206.188,149.631
		c-2.754-1.49-3.795,0.652-4.364,3.17c-0.379,1.674-0.379,3.26,0.187,3.818C203.53,156.526,206.188,151.494,206.188,149.631z
		 M207.799,146.465c1.045-2.422,2.373-9.317,2.751-14.907c0.283-4.377-0.093-11.272-1.041-10.992
		c-2.183,0.745-1.996,9.688-1.996,11.925C207.513,134.82,207.422,143.669,207.799,146.465z"/>
</g>
<g>
	<path fill="#FFFFFF" d="M109.354,174.715c1.893,0.465,0.944,1.514-0.596,1.977c-9.704-1.162-13.491-5.695-15.74-7.321
		c-4.023,2.673-8.994,2.673-12.781,1.976c-12.311-2.209-13.493-22.199-8.641-33.588c-4.381-9.761-2.485-35.563,18.818-34.866
		c12.783,0.465,19.056,15.575,17.872,30.915c-1.538,18.13-8.285,28.473-13.374,33.82C100.357,172.973,104.5,173.786,109.354,174.715
		z M80.828,169.137c4.734,1.047,8.758-0.115,10.651-1.742c-8.402-8.369-12.19-13.946-18.699-26.614
		C69.347,150.542,69.939,166.58,80.828,169.137z M105.802,133.807c0.474-15.806-3.196-27.195-15.742-28.59
		c-14.084-1.511-19.884,15.69-17.161,29.52c3.786-6.857,9.349-11.041,13.02-13.598c1.893-1.394,2.366,1.161,1.537,1.859
		c-5.325,3.834-10.888,8.601-13.137,14.644c1.657,4.998,9.942,20.336,18.938,28.242
		C100.357,160.072,105.802,143.802,105.802,133.807z"/>
</g>
</svg>
