<?xml version="1.0" encoding="utf-8"?>
<!-- Generator: Adobe Illustrator 14.0.0, SVG Export Plug-In . SVG Version: 6.00 Build 43363)  -->
<!DOCTYPE svg PUBLIC "-//W3C//DTD SVG 1.1//EN" "http://www.w3.org/Graphics/SVG/1.1/DTD/svg11.dtd">
<svg version="1.1" id="Layer_1" xmlns="http://www.w3.org/2000/svg" xmlns:xlink="http://www.w3.org/1999/xlink" x="0px" y="0px"
	 width="283.46px" height="283.46px" viewBox="0 0 283.46 283.46" enable-background="new 0 0 283.46 283.46" xml:space="preserve">
<circle fill="#F6CBCE" cx="141.645" cy="142.455" r="97.827"/>
<rect x="89.338" y="152.362" fill="#FFFFFF" width="109.928" height="10.675"/>
<g>
	<path fill="#FFFFFF" d="M94.987,168.052c1.315,0,2.341,0.334,3.071,0.997c0.73,0.668,1.096,1.681,1.096,3.04
		c0,1.053-0.212,1.913-0.636,2.577c-0.425,0.667-1.082,1.094-1.973,1.283v0.043c0.789,0.118,1.365,0.374,1.732,0.768
		c0.363,0.395,0.592,1.03,0.68,1.91c0.029,0.294,0.051,0.608,0.065,0.953c0.016,0.343,0.029,0.729,0.044,1.151
		c0.029,0.833,0.072,1.47,0.131,1.91c0.088,0.437,0.277,0.737,0.571,0.896v0.134h-3.421c-0.162-0.22-0.264-0.472-0.309-0.758
		c-0.042-0.285-0.073-0.581-0.087-0.89l-0.087-3.003c-0.03-0.614-0.185-1.098-0.461-1.448c-0.278-0.351-0.747-0.525-1.404-0.525
		h-1.689v6.624h-3.158v-15.663H94.987z M93.628,174.896c0.76,0,1.345-0.18,1.755-0.536c0.409-0.357,0.615-0.962,0.615-1.811
		c0-1.448-0.733-2.171-2.194-2.171h-1.492v4.518H93.628z"/>
	<path fill="#FFFFFF" d="M114.488,170.641h-5.594v3.685h5.265v2.589h-5.265v4.211h5.812v2.59h-8.971v-15.663h8.752V170.641z"/>
	<path fill="#FFFFFF" d="M125.234,179.636h0.065l2.325-11.584h3.269l-3.596,15.663h-4.06l-3.598-15.663h3.379L125.234,179.636z"/>
	<path fill="#FFFFFF" d="M136.599,168.052h3.156v15.663h-3.156V168.052z"/>
	<path fill="#FFFFFF" d="M149.033,179.283c0,0.365,0.029,0.697,0.088,0.999c0.058,0.301,0.168,0.551,0.329,0.755
		c0.161,0.207,0.376,0.366,0.646,0.482c0.272,0.119,0.61,0.177,1.02,0.177c0.484,0,0.919-0.156,1.307-0.473
		c0.386-0.313,0.581-0.801,0.581-1.457c0-0.352-0.048-0.654-0.144-0.912c-0.094-0.256-0.251-0.485-0.47-0.69
		c-0.221-0.204-0.51-0.391-0.867-0.559c-0.358-0.168-0.802-0.34-1.328-0.515c-0.7-0.235-1.31-0.489-1.819-0.769
		c-0.514-0.277-0.94-0.603-1.284-0.977c-0.343-0.374-0.596-0.804-0.756-1.294c-0.162-0.49-0.242-1.056-0.242-1.7
		c0-1.549,0.433-2.706,1.294-3.466c0.863-0.761,2.048-1.141,3.555-1.141c0.702,0,1.35,0.077,1.94,0.23
		c0.594,0.154,1.104,0.401,1.536,0.746c0.43,0.344,0.768,0.783,1.009,1.316c0.241,0.535,0.362,1.174,0.362,1.919v0.438h-3.029
		c0-0.746-0.13-1.319-0.394-1.721c-0.263-0.401-0.701-0.604-1.314-0.604c-0.353,0-0.645,0.054-0.879,0.154
		c-0.235,0.101-0.419,0.237-0.559,0.407c-0.139,0.166-0.233,0.361-0.285,0.58c-0.053,0.22-0.078,0.445-0.078,0.68
		c0,0.483,0.104,0.887,0.309,1.218c0.204,0.328,0.644,0.632,1.316,0.909l2.435,1.054c0.6,0.263,1.088,0.536,1.47,0.821
		c0.38,0.286,0.683,0.593,0.91,0.922c0.226,0.328,0.385,0.689,0.471,1.086c0.088,0.395,0.131,0.834,0.131,1.314
		c0,1.654-0.479,2.857-1.436,3.609c-0.958,0.754-2.292,1.13-4.004,1.13c-1.783,0-3.059-0.387-3.827-1.162s-1.15-1.887-1.15-3.335
		v-0.637h3.157V179.283z"/>
	<path fill="#FFFFFF" d="M162.415,168.052h3.157v15.663h-3.157V168.052z"/>
	<path fill="#FFFFFF" d="M172.141,172.604c0.11-0.999,0.352-1.861,0.725-2.576c0.372-0.718,0.91-1.276,1.611-1.678
		c0.703-0.401,1.646-0.604,2.829-0.604c1.185,0,2.128,0.203,2.831,0.604c0.702,0.401,1.238,0.96,1.611,1.678
		c0.372,0.715,0.614,1.577,0.724,2.576c0.11,1.004,0.165,2.096,0.165,3.28c0,1.199-0.055,2.297-0.165,3.292
		c-0.109,0.992-0.352,1.849-0.724,2.563c-0.373,0.717-0.909,1.267-1.611,1.645c-0.703,0.382-1.646,0.571-2.831,0.571
		c-1.184,0-2.126-0.189-2.829-0.571c-0.701-0.378-1.239-0.928-1.611-1.645c-0.373-0.715-0.614-1.571-0.725-2.563
		c-0.108-0.995-0.164-2.093-0.164-3.292C171.977,174.699,172.032,173.607,172.141,172.604z M175.213,178.569
		c0.051,0.739,0.153,1.339,0.305,1.801c0.155,0.46,0.373,0.796,0.658,1.008c0.286,0.213,0.663,0.318,1.13,0.318
		c0.469,0,0.845-0.105,1.131-0.318c0.285-0.212,0.505-0.548,0.659-1.008c0.151-0.462,0.256-1.062,0.306-1.801
		c0.052-0.737,0.078-1.632,0.078-2.686s-0.026-1.946-0.078-2.676c-0.05-0.73-0.154-1.331-0.306-1.799
		c-0.154-0.468-0.374-0.809-0.659-1.021c-0.286-0.212-0.662-0.318-1.131-0.318c-0.467,0-0.844,0.106-1.13,0.318
		c-0.285,0.212-0.503,0.553-0.658,1.021c-0.151,0.468-0.254,1.068-0.305,1.799c-0.052,0.729-0.078,1.622-0.078,2.676
		S175.161,177.832,175.213,178.569z"/>
	<path fill="#FFFFFF" d="M196.345,178.779h0.045v-10.728h2.896v15.663h-3.596l-3.863-10.969h-0.044v10.969h-2.895v-15.663h3.642
		L196.345,178.779z"/>
</g>
<g>
	<path fill="#F6CBCE" d="M93.439,155.856h1.17l1.109,1.875l1.103-1.875h1.164l-1.761,2.923v1.822h-1.043v-1.847L93.439,155.856z"/>
	<path fill="#F6CBCE" d="M102.245,159.432c0.058,0.111,0.134,0.2,0.228,0.271c0.096,0.068,0.208,0.118,0.336,0.151
		c0.129,0.032,0.262,0.051,0.398,0.051c0.094,0,0.193-0.008,0.299-0.022c0.108-0.018,0.207-0.046,0.301-0.091
		c0.093-0.044,0.17-0.104,0.231-0.183c0.062-0.078,0.094-0.177,0.094-0.296c0-0.128-0.042-0.231-0.123-0.312
		c-0.082-0.078-0.189-0.147-0.322-0.2c-0.134-0.053-0.283-0.099-0.451-0.139c-0.17-0.04-0.34-0.083-0.514-0.134
		c-0.177-0.043-0.349-0.099-0.517-0.162c-0.17-0.065-0.319-0.148-0.453-0.25c-0.132-0.101-0.24-0.227-0.322-0.382
		c-0.082-0.151-0.122-0.338-0.122-0.555c0-0.243,0.052-0.455,0.156-0.634c0.104-0.181,0.241-0.329,0.408-0.447
		c0.169-0.122,0.359-0.21,0.572-0.269c0.212-0.055,0.424-0.086,0.637-0.086c0.249,0,0.487,0.027,0.715,0.084
		c0.228,0.055,0.431,0.146,0.609,0.271c0.177,0.124,0.316,0.279,0.422,0.475c0.104,0.191,0.155,0.424,0.155,0.699h-1.01
		c-0.01-0.141-0.04-0.258-0.091-0.351c-0.05-0.094-0.119-0.166-0.202-0.221c-0.084-0.053-0.181-0.09-0.289-0.113
		c-0.109-0.022-0.227-0.033-0.354-0.033c-0.085,0-0.17,0.011-0.254,0.028s-0.161,0.049-0.229,0.091
		c-0.068,0.046-0.125,0.102-0.169,0.167c-0.044,0.066-0.065,0.152-0.065,0.253c0,0.093,0.018,0.169,0.053,0.225
		c0.035,0.059,0.105,0.111,0.209,0.162c0.104,0.048,0.248,0.096,0.432,0.146c0.184,0.047,0.425,0.111,0.722,0.184
		c0.088,0.019,0.212,0.052,0.368,0.097c0.157,0.048,0.312,0.121,0.469,0.225c0.155,0.101,0.289,0.237,0.401,0.406
		c0.112,0.173,0.171,0.39,0.171,0.655c0,0.217-0.044,0.419-0.126,0.605c-0.086,0.185-0.21,0.347-0.376,0.482
		c-0.168,0.135-0.372,0.24-0.618,0.313c-0.247,0.075-0.531,0.113-0.854,0.113c-0.262,0-0.515-0.029-0.762-0.095
		c-0.245-0.063-0.462-0.164-0.65-0.304c-0.188-0.137-0.338-0.312-0.448-0.523c-0.111-0.215-0.165-0.467-0.159-0.76h1.009
		C102.157,159.185,102.187,159.32,102.245,159.432z"/>
	<path fill="#F6CBCE" d="M108.451,156.733v-0.877h3.888v0.877h-1.423v3.868h-1.043v-3.868H108.451z"/>
	<path fill="#F6CBCE" d="M117.701,155.856l1.774,4.745h-1.082l-0.359-1.056h-1.775l-0.372,1.056h-1.05l1.795-4.745H117.701z
		 M117.762,158.767l-0.599-1.74h-0.013l-0.619,1.74H117.762z"/>
	<path fill="#F6CBCE" d="M124.997,155.856c0.306,0,0.591,0.049,0.854,0.147c0.265,0.096,0.493,0.242,0.685,0.437
		c0.193,0.195,0.344,0.44,0.453,0.732c0.107,0.291,0.162,0.635,0.162,1.031c0,0.344-0.044,0.661-0.133,0.955
		c-0.088,0.292-0.223,0.546-0.401,0.758c-0.18,0.212-0.404,0.379-0.672,0.502c-0.269,0.122-0.584,0.183-0.947,0.183h-2.047v-4.745
		H124.997z M124.924,159.725c0.151,0,0.298-0.025,0.439-0.072c0.141-0.049,0.268-0.132,0.379-0.243
		c0.11-0.113,0.2-0.261,0.266-0.441c0.065-0.183,0.1-0.402,0.1-0.665c0-0.24-0.024-0.454-0.07-0.649
		c-0.046-0.192-0.123-0.356-0.229-0.495c-0.106-0.137-0.246-0.24-0.422-0.313c-0.174-0.073-0.392-0.111-0.646-0.111h-0.745v2.991
		H124.924z"/>
	<path fill="#F6CBCE" d="M132.955,160.549c-0.216,0.093-0.457,0.139-0.728,0.139c-0.213,0-0.413-0.031-0.602-0.094
		c-0.188-0.061-0.351-0.153-0.489-0.275c-0.138-0.121-0.245-0.268-0.324-0.444c-0.081-0.175-0.121-0.374-0.121-0.602
		c0-0.17,0.03-0.323,0.088-0.462c0.056-0.139,0.135-0.265,0.235-0.38c0.098-0.111,0.214-0.214,0.341-0.3
		c0.129-0.089,0.263-0.167,0.399-0.235c-0.129-0.153-0.235-0.308-0.322-0.465c-0.086-0.153-0.13-0.336-0.13-0.546
		c0-0.161,0.036-0.311,0.104-0.444c0.068-0.131,0.16-0.244,0.275-0.341c0.115-0.096,0.247-0.17,0.396-0.22
		c0.147-0.051,0.302-0.076,0.461-0.076c0.183,0,0.351,0.023,0.509,0.073c0.157,0.049,0.294,0.122,0.412,0.215
		c0.117,0.097,0.21,0.216,0.279,0.356c0.068,0.142,0.103,0.307,0.103,0.493c0,0.277-0.081,0.513-0.243,0.704
		c-0.162,0.19-0.361,0.349-0.601,0.479l0.611,0.75c0.048-0.089,0.086-0.18,0.113-0.275c0.025-0.097,0.046-0.192,0.06-0.29h0.817
		c-0.022,0.214-0.071,0.418-0.146,0.618c-0.076,0.199-0.179,0.384-0.312,0.551l0.965,1.124h-1.158l-0.383-0.473
		C133.371,160.316,133.17,160.455,132.955,160.549z M132.007,158.636c-0.079,0.049-0.15,0.104-0.212,0.173
		c-0.062,0.065-0.111,0.139-0.149,0.217c-0.037,0.081-0.056,0.169-0.056,0.268c0,0.083,0.019,0.164,0.056,0.242
		c0.038,0.076,0.088,0.145,0.149,0.199c0.062,0.057,0.134,0.099,0.216,0.135c0.082,0.033,0.167,0.048,0.257,0.048
		c0.167,0,0.315-0.038,0.442-0.116c0.125-0.079,0.243-0.177,0.354-0.301l-0.811-0.99
		C132.169,158.546,132.089,158.586,132.007,158.636z M132.889,156.566c-0.087-0.088-0.188-0.131-0.303-0.131
		c-0.116,0-0.215,0.038-0.299,0.116c-0.085,0.075-0.125,0.178-0.125,0.3c0,0.153,0.039,0.281,0.118,0.388
		c0.08,0.105,0.165,0.215,0.253,0.326c0.133-0.084,0.246-0.175,0.341-0.273c0.096-0.096,0.145-0.232,0.145-0.407
		C133.019,156.764,132.975,156.656,132.889,156.566z"/>
	<path fill="#F6CBCE" d="M138.508,157.262c0.106-0.303,0.258-0.568,0.457-0.793c0.199-0.226,0.445-0.404,0.735-0.53
		c0.29-0.129,0.617-0.195,0.98-0.195c0.365,0,0.694,0.066,0.982,0.195c0.288,0.126,0.532,0.305,0.73,0.53
		c0.199,0.225,0.354,0.49,0.46,0.793c0.105,0.304,0.158,0.634,0.158,0.988c0,0.346-0.053,0.666-0.158,0.968
		c-0.106,0.298-0.261,0.559-0.46,0.779c-0.198,0.221-0.442,0.395-0.73,0.521c-0.288,0.127-0.617,0.189-0.982,0.189
		c-0.363,0-0.69-0.062-0.98-0.189c-0.29-0.126-0.536-0.3-0.735-0.521s-0.351-0.481-0.457-0.779
		c-0.108-0.302-0.161-0.622-0.161-0.968C138.347,157.896,138.399,157.565,138.508,157.262z M139.46,158.831
		c0.048,0.187,0.122,0.358,0.223,0.507c0.103,0.152,0.235,0.273,0.399,0.364c0.164,0.089,0.363,0.134,0.599,0.134
		c0.234,0,0.434-0.045,0.598-0.134c0.162-0.091,0.297-0.212,0.397-0.364c0.104-0.148,0.177-0.32,0.224-0.507
		c0.047-0.19,0.069-0.382,0.069-0.581c0-0.208-0.022-0.409-0.069-0.604c-0.047-0.194-0.12-0.368-0.224-0.522
		c-0.101-0.154-0.235-0.275-0.397-0.366c-0.164-0.092-0.363-0.137-0.598-0.137c-0.235,0-0.435,0.045-0.599,0.137
		c-0.164,0.091-0.297,0.212-0.399,0.366c-0.101,0.154-0.175,0.328-0.223,0.522c-0.046,0.195-0.069,0.396-0.069,0.604
		C139.391,158.449,139.414,158.641,139.46,158.831z M140.448,154.548v0.776h-0.897v-0.776H140.448z M141.815,154.548v0.776h-0.896
		v-0.776H141.815z"/>
	<path fill="#F6CBCE" d="M147.585,159.432c0.059,0.111,0.134,0.2,0.227,0.271c0.098,0.068,0.209,0.118,0.336,0.151
		c0.13,0.032,0.262,0.051,0.4,0.051c0.093,0,0.191-0.008,0.299-0.022c0.106-0.018,0.206-0.046,0.3-0.091
		c0.093-0.044,0.17-0.104,0.231-0.183c0.063-0.078,0.094-0.177,0.094-0.296c0-0.128-0.043-0.231-0.123-0.312
		c-0.082-0.078-0.189-0.147-0.324-0.2c-0.131-0.053-0.282-0.099-0.449-0.139c-0.17-0.04-0.34-0.083-0.514-0.134
		c-0.177-0.043-0.35-0.099-0.517-0.162c-0.17-0.065-0.32-0.148-0.453-0.25c-0.131-0.101-0.24-0.227-0.321-0.382
		c-0.082-0.151-0.124-0.338-0.124-0.555c0-0.243,0.052-0.455,0.157-0.634c0.104-0.181,0.241-0.329,0.408-0.447
		c0.169-0.122,0.359-0.21,0.571-0.269c0.213-0.055,0.425-0.086,0.638-0.086c0.247,0,0.488,0.027,0.715,0.084
		c0.228,0.055,0.431,0.146,0.609,0.271c0.177,0.124,0.316,0.279,0.421,0.475c0.104,0.191,0.154,0.424,0.154,0.699h-1.008
		c-0.01-0.141-0.04-0.258-0.091-0.351c-0.05-0.094-0.119-0.166-0.201-0.221c-0.086-0.053-0.182-0.09-0.29-0.113
		c-0.11-0.022-0.227-0.033-0.354-0.033c-0.085,0-0.17,0.011-0.253,0.028c-0.084,0.018-0.162,0.049-0.229,0.091
		c-0.069,0.046-0.124,0.102-0.17,0.167c-0.044,0.066-0.066,0.152-0.066,0.253c0,0.093,0.017,0.169,0.054,0.225
		c0.035,0.059,0.104,0.111,0.209,0.162c0.104,0.048,0.248,0.096,0.432,0.146c0.185,0.047,0.423,0.111,0.722,0.184
		c0.088,0.019,0.212,0.052,0.368,0.097c0.157,0.048,0.313,0.121,0.468,0.225c0.157,0.101,0.29,0.237,0.402,0.406
		c0.112,0.173,0.169,0.39,0.169,0.655c0,0.217-0.041,0.419-0.125,0.605c-0.084,0.185-0.21,0.347-0.375,0.482
		c-0.168,0.135-0.372,0.24-0.619,0.313c-0.246,0.075-0.531,0.113-0.854,0.113c-0.262,0-0.515-0.029-0.762-0.095
		c-0.245-0.063-0.462-0.164-0.651-0.304c-0.187-0.137-0.336-0.312-0.448-0.523c-0.11-0.215-0.164-0.467-0.159-0.76h1.011
		C147.498,159.185,147.526,159.32,147.585,159.432z"/>
	<path fill="#F6CBCE" d="M153.791,156.733v-0.877h3.888v0.877h-1.423v3.868h-1.045v-3.868H153.791z"/>
	<path fill="#F6CBCE" d="M164.836,155.856v0.877h-2.506v1.017h2.299v0.812h-2.299v1.162h2.558v0.877h-3.601v-4.745H164.836z"/>
	<path fill="#F6CBCE" d="M171.215,155.856c0.213,0,0.404,0.033,0.575,0.103c0.169,0.069,0.315,0.164,0.438,0.284
		c0.123,0.119,0.216,0.258,0.279,0.415c0.063,0.156,0.096,0.325,0.096,0.508c0,0.277-0.058,0.52-0.175,0.725
		c-0.118,0.204-0.31,0.359-0.575,0.465v0.013c0.129,0.038,0.235,0.092,0.318,0.161c0.085,0.076,0.154,0.162,0.207,0.261
		c0.052,0.101,0.091,0.21,0.115,0.329c0.025,0.12,0.042,0.239,0.049,0.358c0.006,0.078,0.011,0.164,0.014,0.268
		c0.007,0.101,0.015,0.205,0.024,0.311c0.012,0.106,0.029,0.208,0.053,0.303c0.025,0.094,0.061,0.178,0.111,0.243h-1.045
		c-0.056-0.151-0.092-0.328-0.105-0.538s-0.034-0.406-0.06-0.599c-0.036-0.247-0.111-0.43-0.227-0.543
		c-0.114-0.117-0.304-0.175-0.563-0.175h-1.045v1.854h-1.042v-4.745H171.215z M170.842,158.005c0.24,0,0.42-0.054,0.539-0.162
		c0.119-0.105,0.179-0.277,0.179-0.519c0-0.229-0.06-0.396-0.179-0.502c-0.119-0.104-0.299-0.154-0.539-0.154h-1.143v1.337H170.842z
		"/>
	<path fill="#F6CBCE" d="M177.561,155.856v3.868h2.312v0.877h-3.356v-4.745H177.561z"/>
	<path fill="#F6CBCE" d="M187.07,155.856v0.877h-2.505v1.017h2.299v0.812h-2.299v1.162h2.557v0.877h-3.601v-4.745H187.07z"/>
	<path fill="#F6CBCE" d="M191.928,155.856l1.98,3.184h0.013v-3.184h0.978v4.745h-1.044l-1.974-3.175h-0.013v3.175h-0.977v-4.745
		H191.928z"/>
</g>
<g>
	<path fill="#FFFFFF" d="M104.233,140.99c0,1.371,0.195,2.299,0.594,2.78c0.396,0.48,1.174,0.724,2.331,0.724h1.882v1.649H94.618
		v-1.649h4.577v-17.432l-8.053-14.308c-0.598-1.043-1.229-1.776-1.896-2.202c-0.665-0.422-1.501-0.634-2.507-0.634h-0.896v-1.683
		h12.57v1.683h-3.128l8.137,15.176l5.272-11.586c0.133-0.31,0.234-0.609,0.301-0.898c0.068-0.29,0.102-0.599,0.102-0.929
		c0-0.538-0.219-0.968-0.65-1.285c-0.435-0.319-1.027-0.478-1.782-0.478h-0.954v-1.683h9.787v1.683h-3.358l-7.906,17.144V140.99z"/>
	<path fill="#FFFFFF" d="M126.125,117.389c-0.635-0.5-1.104-1.071-1.401-1.707c-0.303-0.638-0.452-1.353-0.452-2.145
		c0-1.66,0.708-3.095,2.114-4.301c1.41-1.205,3.118-1.809,5.128-1.809c0.559,0,1.138,0.084,1.736,0.244
		c0.598,0.166,1.246,0.413,1.939,0.741v-1.537h1.652v11.091h-1.652v-3.503c0-1.698-0.322-3.021-0.97-3.966
		c-0.646-0.949-1.549-1.422-2.706-1.422c-1.006,0-1.803,0.307-2.391,0.914c-0.589,0.608-0.883,1.434-0.883,2.478
		c0,0.75,0.203,1.45,0.607,2.098c0.405,0.647,0.938,1.133,1.593,1.461l-0.349,1.77c-2.738,0.558-4.878,1.842-6.412,3.85
		c-1.536,2.009-2.304,4.517-2.304,7.529c0,4.345,1.385,8.03,4.157,11.062c2.768,3.032,6.124,4.548,10.061,4.548
		c3.147,0,5.639-1.076,7.472-3.229c1.836-2.155,2.753-5.075,2.753-8.761c0-3.012-0.733-5.501-2.201-7.471
		c-1.469-1.972-3.272-2.956-5.415-2.956c-2.069,0-3.774,0.694-5.128,2.084c-1.351,1.393-2.024,3.15-2.024,5.272
		c0,1.757,0.452,3.312,1.36,4.664c0.908,1.349,1.912,2.026,3.011,2.026c0.561,0,0.994-0.169,1.304-0.506
		c0.311-0.34,0.492-0.836,0.552-1.495l1.128,0.119c-0.058,1.447-0.466,2.587-1.216,3.417c-0.755,0.829-1.775,1.246-3.071,1.246
		c-1.737,0-3.188-0.698-4.355-2.087c-1.17-1.39-1.753-3.168-1.753-5.328c0-2.664,0.975-5.126,2.925-7.385
		c1.95-2.258,4.853-4.285,8.716-6.083c1.235-0.557,2.887-1.312,4.953-2.256c5.308-2.356,7.962-4.171,7.962-5.444
		c0-0.137-0.048-0.265-0.145-0.393c-0.096-0.126-0.222-0.227-0.376-0.302l0.29-1.565c0.713,0.135,1.289,0.478,1.721,1.029
		c0.436,0.548,0.653,1.22,0.653,2.013c0,2.007-1.148,3.803-3.446,5.385c-2.297,1.581-5.597,2.848-9.903,3.794
		c2.548,0.791,4.571,2.155,6.067,4.082c1.495,1.932,2.243,4.132,2.243,6.604c0,4.384-1.587,8.1-4.765,11.148
		c-3.176,3.05-7.07,4.578-11.685,4.578c-4.477,0-8.223-1.44-11.234-4.317c-3.013-2.877-4.52-6.438-4.52-10.688
		c0-2.856,0.745-5.54,2.231-8.048C121.183,121.423,123.325,119.24,126.125,117.389z"/>
	<path fill="#FFFFFF" d="M177.569,146.987c-5.939,0-10.837-1.869-14.683-5.606c-3.85-3.733-5.773-8.471-5.773-14.204
		c0-5.504,1.951-10.17,5.857-14.002c3.908-3.832,8.695-5.747,14.368-5.747c5.826,0,10.75,1.925,14.772,5.777
		c4.022,3.851,6.035,8.508,6.035,13.972c0,5.618-1.953,10.324-5.861,14.118C188.379,145.087,183.474,146.987,177.569,146.987z
		 M179.22,144.956c4.187,0,7.586-1.35,10.198-4.052c2.618-2.703,3.922-6.218,3.922-10.542c0-2.605-0.432-5.12-1.288-7.543
		c-0.86-2.424-2.107-4.647-3.748-6.676c-1.831-2.24-3.831-3.918-6.002-5.041c-2.171-1.115-4.539-1.678-7.103-1.678
		c-3.896,0-7.056,1.391-9.476,4.171c-2.423,2.779-3.63,6.457-3.63,11.033c0,2.665,0.403,5.199,1.215,7.6
		c0.809,2.405,1.985,4.552,3.529,6.445c1.719,2.145,3.585,3.726,5.612,4.748C174.475,144.448,176.732,144.956,179.22,144.956z
		 M172.605,97.146c0.677,0,1.269,0.257,1.778,0.769c0.513,0.511,0.769,1.104,0.769,1.779c0,0.715-0.247,1.318-0.737,1.812
		c-0.493,0.492-1.097,0.737-1.81,0.737c-0.735,0-1.342-0.236-1.824-0.71c-0.482-0.472-0.727-1.084-0.727-1.839
		c0-0.676,0.259-1.269,0.77-1.779C171.335,97.403,171.929,97.146,172.605,97.146z M182.683,97.146c0.677,0,1.269,0.257,1.779,0.769
		c0.513,0.511,0.768,1.104,0.768,1.779c0,0.734-0.24,1.342-0.723,1.824c-0.481,0.485-1.09,0.725-1.824,0.725
		c-0.735,0-1.342-0.239-1.823-0.725c-0.485-0.482-0.725-1.09-0.725-1.824c0-0.676,0.256-1.269,0.766-1.779
		C181.412,97.403,182.006,97.146,182.683,97.146z"/>
</g>
</svg>
